<?xml version="1.0" encoding="utf-8"?>
<!-- Generator: Adobe Illustrator 17.0.0, SVG Export Plug-In . SVG Version: 6.00 Build 0)  -->
<!DOCTYPE svg PUBLIC "-//W3C//DTD SVG 1.1//EN" "http://www.w3.org/Graphics/SVG/1.1/DTD/svg11.dtd">
<svg version="1.1" id="Layer_1" xmlns="http://www.w3.org/2000/svg" xmlns:xlink="http://www.w3.org/1999/xlink" x="0px" y="0px"
	 width="58.027px" height="62.942px" viewBox="667.566 5734.32 58.027 62.942"
	 enable-background="new 667.566 5734.32 58.027 62.942" xml:space="preserve">
<g>
	<path fill="#777777" d="M698.703,5782.178c-0.419,0.223-0.813,0.406-1.179,0.655c-0.118,0.079-0.223,0.301-0.223,0.458
		c-0.013,3.171-0.013,6.343,0.013,9.527c0,0.209,0.223,0.472,0.406,0.616c0.76,0.59,1.061,1.494,0.773,2.385
		c-0.301,0.917-1.153,1.494-2.097,1.441c-0.917-0.052-1.677-0.682-1.913-1.612c-0.223-0.852,0.092-1.73,0.878-2.215
		c0.354-0.223,0.419-0.458,0.419-0.826c-0.013-3.001-0.013-6.015,0-9.016c0-0.458-0.065-0.76-0.563-0.904
		c-0.288-0.092-0.55-0.315-0.878-0.498c-0.026,0.183-0.052,0.341-0.052,0.498c0,1.808,0,3.617-0.013,5.438
		c0,0.354,0.079,0.563,0.406,0.773c0.813,0.511,1.127,1.455,0.852,2.333c-0.275,0.904-1.062,1.494-1.992,1.494
		s-1.73-0.577-2.018-1.481c-0.275-0.878,0.052-1.782,0.826-2.372c0.17-0.131,0.38-0.367,0.38-0.563c0.026-2.49,0.013-4.979,0-7.482
		c0-0.04-0.026-0.079-0.052-0.158c-0.419,0-0.852,0-1.363,0c0,0.917-0.013,1.822,0.013,2.726c0,0.131,0.157,0.275,0.288,0.367
		c0.878,0.642,1.219,1.521,0.917,2.438c-0.262,0.839-1.022,1.429-1.9,1.468c-0.97,0.04-1.743-0.498-2.123-1.52
		c-0.026-0.052-0.039-0.105-0.144-0.144c0,0.196,0,0.406,0,0.603c0,1.914,0.013,3.84,0,5.753c-0.013,2.202-1.494,3.932-3.591,4.233
		c-1.966,0.275-3.827-1.035-4.469-3.119c-0.079-0.249-0.328-0.524-0.577-0.643c-0.944-0.472-1.586-1.179-1.704-2.228
		c-0.039-0.328,0.197-0.694,0.328-1.022c0.092-0.236,0.301-0.446,0.315-0.682c0.039-0.747,0.013-1.481,0.013-2.228
		c-0.419-0.091-0.799-0.157-1.166-0.262c-2.175-0.616-3.695-2.49-3.827-4.744c-0.026-0.341-0.105-0.524-0.446-0.642
		c-0.865-0.314-1.442-0.943-1.743-1.834c-0.197-0.59-0.183-1.114,0.367-1.546c0.144-0.105,0.197-0.406,0.21-0.616
		c0.013-1.192,0.013-2.385,0.013-3.578c0-0.432,0.013-0.838,0.472-1.114c0.105-0.065,0.131-0.328,0.118-0.485
		c-0.079-1.101,0.236-2.057,0.904-2.922c0.459-0.59,0.944-0.603,1.428-0.052c0.734,0.839,1.101,1.795,1.022,2.936
		c-0.013,0.196,0.157,0.419,0.236,0.616c0.118,0.301,0.328,0.603,0.328,0.904c0.039,1.232,0,2.477,0.026,3.708
		c0,0.236,0.197,0.472,0.262,0.708c0.118,0.38,0.341,0.8,0.288,1.167c-0.144,0.904-0.695,1.599-1.546,1.979
		c-0.406,0.17-0.459,0.406-0.419,0.786c0.131,1.73,1.586,3.171,3.276,3.329c0.249-0.314,0.498-0.563,0.681-0.852
		c0.092-0.157,0.118-0.393,0.105-0.576c-0.079-1.075,0.249-2.019,0.904-2.844c0.419-0.538,0.944-0.551,1.402-0.053
		c0.21,0.236,0.393,0.511,0.55,0.773c0.157,0.275,0.275,0.563,0.511,0.838c0.026-0.458,0.079-0.904,0.092-1.363
		c0.039-1.743-0.052-3.499,0.144-5.229c0.262-2.28,1.546-4.023,3.486-5.242c0.328-0.209,0.459-0.419,0.459-0.813
		c-0.013-0.852,0.039-1.704,0.039-2.555c0-0.17-0.052-0.38-0.157-0.511c-0.852-1.166-2.831-1.415-3.945-0.511
		c-0.642,0.538-0.826,1.389-0.432,2.058c0.341,0.59,1.035,0.839,1.717,0.577c0.223-0.092,0.446-0.262,0.603-0.446
		c0.354-0.393,0.76-0.524,1.166-0.157c0.419,0.367,0.301,0.787-0.013,1.193c-0.773,0.983-2.254,1.336-3.473,0.813
		c-1.206-0.524-1.926-1.874-1.704-3.198c0.275-1.638,1.677-2.804,3.486-2.909c1.31-0.079,2.123,0.197,3.46,1.192
		c0.799-1.14,1.848-1.966,3.263-2.293c-0.262-1.14-0.603-2.293,0.917-2.752c-0.039-1.979-1.415-3.8-3.119-3.971
		c-0.629-0.065-1.35,0.131-1.953,0.38c-0.642,0.262-0.904,0.891-0.826,1.585c0.052,0.563,0.354,1.009,0.93,1.18
		c0.655,0.196,1.206,0.039,1.638-0.511c0.301-0.367,0.695-0.446,1.061-0.144c0.406,0.314,0.38,0.721,0.092,1.127
		c-0.681,0.996-2.149,1.415-3.381,0.97c-1.193-0.433-1.992-1.677-1.887-2.962c0.105-1.389,0.865-2.306,2.123-2.896
		c-1.546-0.472-3.84,0.184-5.229,1.494c-1.324,1.245-1.966,2.804-1.992,4.613c-0.013,0.681,0.013,1.363-0.026,2.044
		c-0.105,2.555-2.202,4.469-4.744,4.456c-2.542-0.026-4.587-1.992-4.691-4.534c-0.026-0.642-0.026-1.285,0.013-1.914
		c0.013-0.419-0.066-0.681-0.524-0.865c-0.813-0.328-1.31-0.983-1.573-1.822c-0.17-0.55-0.131-1.035,0.367-1.441
		c0.144-0.118,0.223-0.393,0.223-0.59c0.026-1.231-0.026-2.477,0.026-3.708c0.013-0.328,0.288-0.655,0.419-0.983
		c0.066-0.17,0.157-0.367,0.144-0.55c-0.079-1.101,0.249-2.058,0.917-2.909c0.432-0.55,0.93-0.563,1.389-0.04
		c0.734,0.839,1.114,1.795,1.048,2.922c-0.013,0.223,0.183,0.446,0.275,0.668c0.105,0.289,0.288,0.577,0.301,0.865
		c0.039,1.232,0,2.477,0.026,3.709c0.013,0.262,0.21,0.498,0.301,0.76c0.118,0.341,0.328,0.721,0.275,1.048
		c-0.17,1.009-0.799,1.704-1.717,2.163c-0.183,0.092-0.38,0.367-0.393,0.577c-0.052,0.616-0.039,1.231-0.026,1.848
		c0.026,1.861,1.402,3.263,3.211,3.276c1.795,0.013,3.184-1.363,3.25-3.237c0.026-0.852,0-1.704,0.066-2.555
		c0.131-1.717,0.839-3.198,1.979-4.469c0.131-0.144,0.249-0.275,0.406-0.458c-1.101-0.419-1.979-1.062-2.542-2.071
		c-0.616-1.114-0.655-2.228,0.013-3.329c0.603-0.996,1.494-1.494,2.66-1.455c1.468,0.052,2.726,1.297,2.791,2.739
		c0.026,0.708-0.21,1.337-0.826,1.691c-0.236,0.131-0.76,0.091-0.944-0.079c-0.17-0.183-0.223-0.733-0.066-0.943
		c0.341-0.458,0.38-0.826,0.052-1.258c-0.38-0.511-1.035-0.734-1.586-0.551c-0.904,0.315-1.297,1.402-0.826,2.333
		c0.655,1.297,2.28,1.913,3.787,1.376c1.402-0.498,2.831-0.629,4.272-0.38c3.394,0.59,5.779,3.014,6.382,6.435
		c0.026,0.118,0.039,0.236,0.092,0.524c0.157-0.262,0.249-0.38,0.301-0.511c0.328-0.734,0.826-1.297,1.586-1.586
		c0.38-0.144,0.446-0.354,0.446-0.721c-0.013-1.323-0.026-2.647,0-3.958c0-0.38-0.105-0.55-0.485-0.655
		c-1.022-0.288-1.926-0.799-2.647-1.572c-0.721-0.787-0.616-1.324,0.262-1.9c0.393-0.249,0.786-0.537,1.075-0.891
		c0.537-0.708,0.93-1.324-0.079-2.162c-1.035,0.76-2.215,1.087-3.525,0.917c-2.136-0.275-3.538-2.044-3.119-4.023
		c0.249-1.14,0.957-1.9,2.084-2.188c1.127-0.289,2.162-0.04,2.962,0.852c0.432,0.472,0.472,0.996,0.092,1.297
		c-0.472,0.38-0.839,0.17-1.206-0.236c-0.524-0.589-1.455-0.642-2.005-0.157c-0.59,0.524-0.655,1.507-0.105,2.136
		c0.708,0.813,1.664,0.943,2.634,0.721c0.891-0.209,1.743-0.59,1.953-1.677c0.052-0.302,0.183-0.655,0.406-0.852
		c0.616-0.563,0.511-1.245,0.472-1.979c-0.393-0.145-0.799-0.262-1.179-0.446c-1.966-0.957-3.04-2.542-3.158-4.731
		c-0.052-1.035,0.55-1.651,1.573-1.664c3.184,0.04,6.356,0.04,9.514,0.052c1.061,0,1.638,0.642,1.599,1.704
		c-0.105,2.293-1.612,4.246-3.8,4.928c-0.183,0.052-0.367,0.118-0.55,0.17c-0.039,0.721-0.17,1.442,0.459,2.019
		c0.197,0.183,0.328,0.511,0.38,0.799c0.183,1.062,0.996,1.455,1.874,1.69c0.93,0.236,1.874,0.131,2.621-0.603
		c0.629-0.616,0.642-1.599,0.052-2.188c-0.577-0.577-1.494-0.511-2.136,0.17c-0.341,0.367-0.708,0.498-1.114,0.157
		c-0.432-0.354-0.328-0.786-0.026-1.192c0.721-0.97,2.202-1.35,3.407-0.865c1.193,0.472,1.966,1.782,1.808,3.08
		c-0.21,1.612-1.455,2.791-3.158,3.027c-1.31,0.17-2.49-0.131-3.538-0.904c-0.629,0.642-0.734,1.271-0.183,1.992
		c0.354,0.458,0.852,0.826,1.324,1.167c0.603,0.432,0.721,0.917,0.262,1.507c-0.799,1.048-1.822,1.782-3.224,2.044
		c0,0.773,0,1.546,0,2.333c0,0.406,0.026,0.813,0,1.219c-0.052,0.839-0.066,1.573,0.957,1.979c0.419,0.17,0.668,0.786,0.983,1.206
		c0.105,0.131,0.17,0.288,0.262,0.432c0.052-0.013,0.105-0.026,0.17-0.039c0.066-0.301,0.131-0.59,0.197-0.891
		c0.747-3.447,3.774-5.95,7.286-6.042c1.206-0.026,2.359,0.157,3.499,0.563c1.428,0.511,2.896,0.04,3.669-1.127
		c0.406-0.616,0.498-1.258,0.105-1.926c-0.563-0.93-1.861-0.943-2.424-0.013c-0.21,0.354-0.288,0.695,0.052,1.048
		c0.354,0.354,0.38,0.773,0.013,1.127c-0.419,0.394-0.813,0.223-1.179-0.131c-0.695-0.668-0.799-1.769-0.275-2.713
		c0.76-1.376,2.451-1.939,3.84-1.284c1.442,0.682,2.123,2.412,1.546,3.958c-0.446,1.18-1.31,1.979-2.857,2.634
		c0,0.04,0,0.092,0.026,0.118c1.651,1.729,2.333,3.813,2.228,6.185c-0.013,0.446-0.013,0.891,0.026,1.337
		c0.144,1.717,1.546,2.988,3.25,2.961c1.73-0.026,3.106-1.363,3.184-3.105c0.013-0.341-0.026-0.682,0.013-1.022
		c0.079-0.852-0.026-1.507-0.957-1.979c-0.537-0.275-0.839-1.062-1.153-1.665c-0.236-0.458-0.026-0.891,0.354-1.258
		c0.157-0.145,0.275-0.419,0.288-0.629c0.026-1.231-0.013-2.477,0.026-3.708c0.013-0.38,0.249-0.76,0.498-1.114
		c-0.105-1.192,0.183-2.293,0.93-3.276c0.472-0.629,0.97-0.655,1.468-0.065c0.747,0.852,1.127,1.848,1.009,3.001
		c-0.013,0.144,0.013,0.38,0.105,0.433c0.498,0.262,0.485,0.694,0.485,1.153c-0.013,1.193-0.013,2.385,0.013,3.578
		c0,0.236,0.131,0.511,0.301,0.695c0.354,0.38,0.406,0.786,0.275,1.245c-0.249,0.891-0.76,1.586-1.625,1.94
		c-0.406,0.17-0.524,0.393-0.498,0.813c0.039,0.655,0.026,1.323,0,1.979c-0.105,2.49-2.149,4.456-4.652,4.508
		c-2.516,0.052-4.639-1.848-4.823-4.325c-0.079-0.996-0.013-2.005-0.105-3.001c-0.315-3.394-3.774-5.963-7.116-5.294
		c0.354,0.249,0.721,0.446,1.022,0.721c1.193,1.036,1.415,2.844,0.537,4.115c-0.852,1.231-2.516,1.625-3.853,0.852
		c-0.367-0.209-0.695-0.55-0.957-0.904c-0.262-0.341-0.197-0.813,0.197-0.983c0.262-0.118,0.668-0.026,0.97,0.079
		c0.223,0.079,0.354,0.367,0.563,0.485c0.642,0.354,1.481,0.131,1.861-0.458c0.419-0.668,0.262-1.612-0.419-2.11
		c-0.826-0.616-1.769-0.747-2.726-0.367c-0.498,0.196-0.97,0.524-1.363,0.904c-0.668,0.655-1.127,1.887-1.206,2.883
		c1.232,0.76,1.271,0.891,0.891,2.778c1.363,0.393,2.464,1.166,3.119,2.267c0.996-0.38,1.9-0.891,2.87-1.048
		c2.49-0.406,4.587,1.992,3.813,4.272c-0.367,1.075-1.114,1.743-2.241,1.939c-1.088,0.197-2.018-0.118-2.765-0.943
		c-0.341-0.38-0.511-0.8-0.079-1.232c0.341-0.341,0.76-0.262,1.206,0.209c0.55,0.59,1.441,0.668,2.005,0.184
		c0.577-0.498,0.668-1.441,0.17-2.083s-1.179-0.904-1.966-0.826c-0.865,0.092-1.559,0.537-2.123,1.179
		c-0.092,0.118-0.157,0.302-0.157,0.446c0.013,0.813,0.065,1.612,0.052,2.424c0,0.354,0.131,0.511,0.419,0.694
		c2.503,1.533,3.787,3.774,3.827,6.723c0.026,1.337,0,2.687,0.013,4.023c0,0.354,0.065,0.708,0.118,1.219
		c0.328-0.563,0.55-1.009,0.839-1.402c0.446-0.616,0.97-0.629,1.468-0.052c0.629,0.734,1.022,1.572,1.009,2.555
		c-0.013,0.446-0.066,0.865,0.419,1.14c0.118,0.065,0.157,0.289,0.236,0.433c1.586-0.105,3.329-1.953,3.578-3.8
		c-0.17-0.079-0.367-0.17-0.55-0.262c-0.865-0.419-1.415-1.114-1.586-2.031c-0.052-0.314,0.013-0.799,0.223-0.983
		c0.367-0.328,0.367-0.682,0.367-1.075c0-1.166-0.026-2.346,0.013-3.512c0.013-0.314,0.275-0.616,0.406-0.931
		c0.079-0.17,0.183-0.367,0.17-0.537c-0.092-1.127,0.275-2.097,0.996-2.936c0.511-0.59,0.996-0.563,1.468,0.052
		c0.642,0.839,0.957,1.782,0.891,2.857c-0.013,0.197,0.157,0.406,0.236,0.616c0.118,0.302,0.315,0.603,0.328,0.917
		c0.039,1.219,0,2.424,0.026,3.643c0.013,0.249,0.157,0.55,0.328,0.734c0.354,0.367,0.432,0.773,0.315,1.232
		c-0.236,0.917-0.799,1.573-1.651,2.005c-0.197,0.105-0.406,0.314-0.459,0.524c-0.708,2.647-2.162,4.547-4.993,5.111
		c-0.039,0.013-0.079,0.039-0.17,0.092c0,0.838,0,1.704,0.013,2.582c0,0.105,0.066,0.262,0.144,0.328
		c0.642,0.485,0.537,1.087,0.288,1.729c-0.288,0.708-0.76,1.245-1.442,1.546c-0.367,0.157-0.537,0.367-0.655,0.76
		c-0.577,1.861-2.333,3.08-4.272,2.988c-1.822-0.079-3.381-1.415-3.774-3.25c-0.092-0.432-0.092-0.891-0.092-1.336
		c-0.013-1.887,0-3.774,0-5.806c-0.17,0.262-0.249,0.393-0.354,0.524c-0.524,0.721-1.232,1.035-2.11,0.891
		c-0.865-0.144-1.533-0.813-1.69-1.704c-0.144-0.852,0.144-1.586,0.852-2.058c0.393-0.262,0.472-0.524,0.459-0.943
		c-0.026-0.747,0-1.481,0-2.28c-0.498,0-0.957,0-1.468,0c0,1.232,0,2.451,0,3.656c0,1.258,0.013,2.516,0,3.774
		c0,0.341,0.052,0.563,0.38,0.773c0.826,0.511,1.14,1.494,0.852,2.398c-0.275,0.852-1.075,1.429-1.979,1.442
		c-0.93,0-1.743-0.59-2.018-1.481c-0.275-0.891,0.066-1.795,0.826-2.372c0.183-0.144,0.38-0.406,0.38-0.616
		c0.026-1.939,0.013-3.879,0.013-5.819C698.729,5782.349,698.716,5782.27,698.703,5782.178z M710.064,5784.236
		c-0.917-0.826-1.284-1.966-1.258-3.263c0.013-0.878,0.026-1.743,0-2.621c-0.026-0.865,0-1.756-0.144-2.608
		c-0.288-1.585-1.127-2.831-2.555-3.839c0,0.314,0,0.511,0,0.694c0,6.539,0,13.065,0,19.604c0,0.197,0,0.38,0.013,0.577
		c0.105,1.206,1.127,2.228,2.346,2.307c1.284,0.092,2.477-0.76,2.765-1.992c-0.957-0.354-1.664-0.983-1.979-1.992
		c-0.17-0.563-0.157-1.075,0.367-1.494c0.144-0.118,0.21-0.393,0.223-0.589c0.026-1.193,0-2.385,0.013-3.578
		C709.855,5785.074,709.973,5784.721,710.064,5784.236z M686.843,5771.996c-1.599,1.297-2.451,2.792-2.529,4.692
		c-0.052,1.507,0.026,3.027-0.039,4.534c-0.039,0.799-0.065,1.704-0.446,2.346c-0.616,1.062-0.603,2.136-0.59,3.25
		c0,0.603,0.013,1.192,0,1.795c-0.013,0.432,0,0.799,0.38,1.14c0.197,0.184,0.249,0.629,0.21,0.931
		c-0.183,1.153-0.944,1.861-1.992,2.28c0.249,1.167,1.206,2.058,2.267,2.123c1.127,0.079,2.215-0.629,2.569-1.717
		c0.118-0.38,0.17-0.799,0.17-1.192c0.013-6.5,0.013-13,0.013-19.487C686.843,5772.52,686.843,5772.363,686.843,5771.996z
		 M695.885,5766.963c-2.451-0.865-2.883-1.101-3.682-1.952c-0.695-0.734-0.865-0.773-1.782-0.315
		c-0.813,0.406-1.494,0.996-1.73,1.874c-0.249,0.944-0.288,1.939-0.446,3.054c1.9-0.472,3.591-0.38,5.137,0.144
		c0.341-0.616,0.563-1.206,0.957-1.651C694.732,5767.658,695.309,5767.37,695.885,5766.963z M704.613,5769.545
		c-0.066-0.878-0.013-1.704-0.183-2.477c-0.288-1.35-1.166-2.254-2.503-2.621c-0.21-0.066-0.59,0.013-0.708,0.157
		c-0.944,1.14-2.123,1.874-3.565,2.188c-0.118,0.026-0.223,0.144-0.341,0.209c0.105,0.118,0.183,0.275,0.301,0.341
		c1.009,0.458,1.599,1.219,1.822,2.306c0.013,0.092,0.079,0.184,0.118,0.289C701.179,5769.231,702.831,5769.152,704.613,5769.545z
		 M689.778,5780.684c-0.498-0.131-0.839-0.354-0.878-0.904c-0.249-3.263,1.651-6.369,4.678-7.666
		c0.157-0.065,0.315-0.144,0.55-0.249c-1.651-1.048-3.342-1.232-5.15-0.865c-0.498,0.104-0.629,0.314-0.629,0.813
		c0.026,4.259,0.013,8.518,0.013,12.777c0,0.17,0.026,0.354,0.026,0.498c0.223-0.354,0.354-0.813,0.668-0.983
		c0.76-0.433,0.747-1.075,0.721-1.782C689.765,5781.811,689.778,5781.274,689.778,5780.684z M699.03,5771.904
		c0.118,0.091,0.157,0.131,0.21,0.157c3.263,1.455,4.927,4.049,4.836,7.587c-0.013,0.275-0.118,0.721-0.288,0.773
		c-0.642,0.196-0.524,0.668-0.524,1.127c0,0.55-0.013,1.101,0,1.664c0,0.157,0.039,0.354,0.131,0.458
		c0.367,0.38,0.773,0.721,1.166,1.088c0-4.364,0-8.754,0.013-13.131c0-0.38-0.131-0.511-0.485-0.59
		C702.306,5770.594,700.655,5770.935,699.03,5771.904z M700.708,5737.911c-2.844,0-5.583,0-8.4,0
		c0.629,0.917,1.389,1.572,2.398,1.664c1.206,0.118,2.451,0.118,3.656,0C699.332,5739.47,700.105,5738.854,700.708,5737.911z
		 M694.221,5750.635c1.507,1.271,3.695,1.245,4.639-0.157c-0.917-0.668-1.559-1.533-1.769-2.647c-0.393,0-0.747,0-1.101,0
		c0.052,0.053,0.105,0.105,0.157,0.157C695.505,5748.853,694.876,5749.731,694.221,5750.635z M695.702,5779.059
		c0-1.821,0-3.617,0-5.438c-1.494,1.036-2.647,3.945-2.175,5.438C694.234,5779.059,694.942,5779.059,695.702,5779.059z
		 M697.314,5779.046c0.773,0,1.481,0,2.228,0c-0.052-2.083-0.603-3.905-2.228-5.464
		C697.314,5775.495,697.314,5777.251,697.314,5779.046z M697.943,5770.096c0-0.76-0.655-1.429-1.415-1.441
		c-0.786-0.013-1.481,0.668-1.481,1.441c0,0.786,0.695,1.468,1.481,1.455C697.287,5771.524,697.943,5770.855,697.943,5770.096z
		 M696.475,5743.401c-0.813,0.013-1.455,0.694-1.415,1.481c0.039,0.773,0.681,1.389,1.468,1.376
		c0.773-0.013,1.415-0.655,1.415-1.429C697.943,5744.03,697.274,5743.388,696.475,5743.401z M712.803,5789.438
		c0-1.245,0-2.424,0-3.604c-0.498,0-0.944,0-1.376,0c0,1.232,0,2.411,0,3.604C711.899,5789.438,712.318,5789.438,712.803,5789.438z
		 M680.277,5785.677c0,1.245,0,2.424,0,3.63c0.485,0,0.917,0,1.376,0c0-1.219,0-2.424,0-3.63
		C681.169,5785.677,680.749,5785.677,680.277,5785.677z M699.869,5774.184c0.813,1.521,1.153,3.171,1.219,4.862
		c0.524,0,0.97,0,1.481,0C702.438,5776.949,701.599,5775.324,699.869,5774.184z M671.248,5756.729c0-1.232,0-2.385,0-3.564
		c-0.485,0-0.944,0-1.402,0c0,1.219,0,2.372,0,3.564C670.331,5756.729,670.763,5756.729,671.248,5756.729z M675.075,5777.46
		c0-1.219,0-2.385,0-3.578c-0.485,0-0.917,0-1.376,0c0,1.206,0,2.385,0,3.578C674.171,5777.46,674.616,5777.46,675.075,5777.46z
		 M692.792,5774.342c-1.442,1.14-2.267,2.699-2.346,4.717c0.485,0,0.917,0,1.219,0
		C692.059,5777.434,692.425,5775.862,692.792,5774.342z M723.326,5756.742c0-1.232,0-2.398,0-3.578c-0.472,0-0.904,0-1.35,0
		c0,1.219,0,2.398,0,3.578C722.435,5756.742,722.855,5756.742,723.326,5756.742z M719.434,5773.909c-0.524,0-0.97,0-1.402,0
		c0,1.219,0,2.372,0,3.538c0.485,0,0.944,0,1.402,0C719.434,5776.242,719.434,5775.102,719.434,5773.909z M691.744,5735.932
		c-0.026,0.065-0.039,0.131-0.065,0.21c0.183,0.065,0.367,0.17,0.55,0.17c0.917,0.013,1.822,0.013,2.739,0.013
		c1.926,0,3.866,0,5.792-0.013c0.197,0,0.38-0.131,0.577-0.196c-0.026-0.065-0.052-0.118-0.079-0.184
		C698.087,5735.932,694.915,5735.932,691.744,5735.932z M695.531,5764.592c0.065-0.026,0.144-0.065,0.21-0.092
		c0-0.917,0-1.835,0-2.739c-0.459,0-0.878,0-1.455,0C694.732,5762.77,695.125,5763.688,695.531,5764.592z M698.703,5761.748
		c-0.55,0-0.944,0-1.337,0c0,0.917,0,1.795,0,2.66c0.065,0.013,0.118,0.026,0.183,0.052
		C697.929,5763.583,698.296,5762.705,698.703,5761.748z M697.812,5780.684c-0.904,0-1.743,0-2.621,0
		C695.99,5781.707,696.999,5781.72,697.812,5780.684z M699.476,5764.107c0,0,0.039,0.039,0.052,0.026
		c0.708-0.642,1.14-1.415,1.297-2.385c-0.275,0-0.472,0-0.642,0C699.948,5762.561,699.712,5763.333,699.476,5764.107z
		 M675.455,5779.085c-0.76,0-1.481,0-2.241,0C673.895,5779.911,674.813,5779.911,675.455,5779.085z M717.626,5779.085
		c0.681,0.826,1.599,0.826,2.241,0C719.12,5779.085,718.386,5779.085,717.626,5779.085z M671.668,5758.341c-0.799,0-1.52,0-2.267,0
		C670.003,5759.167,670.908,5759.179,671.668,5758.341z M723.693,5758.354c-0.76,0-1.481,0-2.241,0
		C722.199,5759.179,723.104,5759.167,723.693,5758.354z M697.628,5760.162c-0.681-0.878-1.704-0.852-2.228,0
		C696.134,5760.162,696.842,5760.162,697.628,5760.162z M692.806,5761.722c-0.197,0.013-0.38,0.026-0.786,0.052
		c0.485,0.865,0.891,1.612,1.31,2.346c0.052-0.026,0.105-0.053,0.157-0.092C693.264,5763.281,693.041,5762.547,692.806,5761.722z
		 M679.766,5790.893c0.799,0.865,1.848,0.813,2.241,0C681.286,5790.893,680.566,5790.893,679.766,5790.893z M713.223,5791.037
		c-0.799,0-1.52,0-2.267,0C711.624,5791.862,712.476,5791.875,713.223,5791.037z M691.325,5785.585
		c-0.367-0.275-0.59-0.563-0.786-0.538c-0.21,0.026-0.38,0.341-0.577,0.524c0.183,0.184,0.354,0.498,0.564,0.537
		C690.722,5786.123,690.958,5785.848,691.325,5785.585z M702.516,5786.372c0.249-0.38,0.537-0.616,0.511-0.813
		c-0.026-0.209-0.354-0.38-0.537-0.563c-0.183,0.197-0.498,0.38-0.511,0.59C701.94,5785.782,702.241,5786.005,702.516,5786.372z
		 M697.3,5795.191c-0.354-0.275-0.577-0.576-0.773-0.563c-0.21,0.013-0.393,0.328-0.59,0.498c0.183,0.197,0.341,0.524,0.55,0.55
		C696.671,5795.715,696.92,5795.44,697.3,5795.191z M700.328,5790.591c-0.419-0.262-0.655-0.524-0.852-0.498
		c-0.197,0.04-0.459,0.341-0.485,0.563c-0.013,0.145,0.328,0.459,0.511,0.459C699.712,5791.129,699.934,5790.867,700.328,5790.591z
		 M692.701,5790.618c0.406,0.262,0.629,0.524,0.839,0.511c0.183-0.013,0.537-0.341,0.511-0.472c-0.039-0.223-0.301-0.524-0.511-0.55
		C693.343,5790.067,693.107,5790.355,692.701,5790.618z M696.003,5741.278c0.105,0.262,0.131,0.511,0.236,0.55
		c0.197,0.079,0.432,0.026,0.708,0.026c-0.026-0.236-0.039-0.406-0.052-0.563C696.606,5741.278,696.383,5741.278,696.003,5741.278z
		 M722.553,5751.421c0.052,0,0.105,0,0.157,0c0-0.433,0-0.878,0-1.311c-0.052,0-0.105,0-0.157,0
		C722.553,5750.543,722.553,5750.976,722.553,5751.421z"/>
</g>
</svg>
