<?xml version="1.0" encoding="utf-8"?>
<!-- Generator: Adobe Illustrator 17.0.0, SVG Export Plug-In . SVG Version: 6.00 Build 0)  -->
<!DOCTYPE svg PUBLIC "-//W3C//DTD SVG 1.1//EN" "http://www.w3.org/Graphics/SVG/1.1/DTD/svg11.dtd">
<svg version="1.1" id="Layer_1" xmlns="http://www.w3.org/2000/svg" xmlns:xlink="http://www.w3.org/1999/xlink" x="0px" y="0px"
	 width="115.928px" height="114.458px" viewBox="0 0 115.928 114.458" enable-background="new 0 0 115.928 114.458"
	 xml:space="preserve">
<path fill-rule="evenodd" clip-rule="evenodd" fill="#54B948" d="M104.347,93.742c-0.058,1.612-0.763,2.907-2.122,3.882
	l-15.927,11.334c-0.732,0.587-1.632,1.036-2.706,1.352c-1.076,0.318-2.105,0.465-3.086,0.446c-0.071-0.012-0.279-0.032-0.629-0.051
	c-0.346-0.023-0.798-0.077-1.347-0.17c-1.304-0.215-3.378-0.786-6.221-1.712c-2.843-0.923-6.23-2.609-10.163-5.055
	c-3.933-2.446-8.29-5.86-13.065-10.241c-4.776-4.378-9.687-10.123-14.719-17.221c-4.022-5.529-7.259-10.713-9.705-15.556
	s-4.327-9.26-5.641-13.25c-1.321-3.988-2.215-7.552-2.683-10.697c-0.468-3.141-0.699-5.823-0.685-8.042
	c0.012-2.217,0.156-3.94,0.429-5.163c0.269-1.225,0.417-1.908,0.44-2.042c0.295-0.94,0.766-1.866,1.41-2.783
	c0.645-0.916,1.359-1.625,2.147-2.131L36.019,5.203c1.118-0.802,2.294-1.1,3.531-0.898c0.891,0.147,1.638,0.531,2.241,1.16
	s1.08,1.359,1.436,2.193l7.574,22.712c0.439,1.199,0.414,2.43-0.077,3.686c-0.487,1.263-1.253,2.263-2.292,3.01l-5.875,4.211
	c-0.157,0.116-0.317,0.318-0.47,0.609c-0.152,0.295-0.248,0.542-0.283,0.747c0.038,1.487,0.388,3.237,1.041,5.247
	c0.552,1.782,1.494,4.001,2.818,6.651c1.328,2.647,3.314,5.779,5.965,9.388c2.568,3.664,4.908,6.571,7.023,8.716
	c2.112,2.144,3.91,3.763,5.385,4.852c1.478,1.087,2.631,1.789,3.462,2.1l1.243,0.468c0.138,0.026,0.369,0.01,0.697-0.042
	c0.327-0.051,0.57-0.138,0.73-0.25l6.849-5.007c1.417-0.893,2.947-1.204,4.594-0.933c1.166,0.193,2.06,0.548,2.675,1.071
	l0.106,0.019l17.937,15.007C103.625,91.05,104.295,92.326,104.347,93.742z"/>
</svg>
