<?xml version="1.0" encoding="utf-8"?>
<!-- Generator: Adobe Illustrator 17.0.0, SVG Export Plug-In . SVG Version: 6.00 Build 0)  -->
<!DOCTYPE svg PUBLIC "-//W3C//DTD SVG 1.1//EN" "http://www.w3.org/Graphics/SVG/1.1/DTD/svg11.dtd">
<svg version="1.1" id="Layer_1" xmlns="http://www.w3.org/2000/svg" xmlns:xlink="http://www.w3.org/1999/xlink" x="0px" y="0px"
	 width="115.928px" height="115.94px" viewBox="0 0 115.928 115.94" enable-background="new 0 0 115.928 115.94"
	 xml:space="preserve">
<path fill="#00A651" d="M115.928,56.511c0,0.974,0,1.954,0,2.938c-0.423,7.41-1.831,13.971-4.45,20.91
	c-0.619,1.329-1.225,2.657-1.831,3.989c-3.634,6.484-7.661,11.869-13.123,16.986c-4.556,3.911-9.357,6.832-14.645,9.635
	c-1.244,0-2.603,1.473-3.882,1.473c-0.464,0.464-2.315,0.819-2.815,0.935c-0.731,0.731-2.802,0.406-3.478,1.081
	c-2.07,0.364-4.134,0.731-6.195,1.095c-3.633,0.339-7.187,0.427-10.84,0.465c-4.313-0.436-8.457-1.397-12.668-2.103
	c-0.77-0.77-3.067-0.519-3.886-1.338c-0.883,0-1.789-0.935-2.675-0.935c-0.664-0.403-0.936-0.403-5.156-2.545
	c-4.478-2.598-8.297-5.364-12.169-8.834c-1.434-1.474-2.86-2.947-4.288-4.411c-2.274-2.951-2.274-2.951-4.547-6.158
	c-4.211-6.83-6.949-13.74-8.538-21.649c-0.791-5.694-0.945-11.141-0.471-16.863c0.355-2.1,0.713-4.202,1.081-6.292
	c1.751-6.417,4.095-11.688,7.255-17.554c4.095-5.888,8.303-10.695,13.846-15.254c3.015-2.148,3.015-2.148,6.368-4.288
	c5.684-2.938,5.956-2.938,6.348-3.209c1.081,0,2.206-1.202,3.353-1.202c0.606-0.606,4.105-1.332,4.817-1.474
	c0.135-0.135,0.529-0.135,0.664-0.271C48.867,0.694,53.455,0.107,58.417,0c4.566,0.232,8.912,0.887,13.42,1.638
	c0.28,0.281,1.647,0.481,2.005,0.539c0.229,0.232,4.884,1.735,5.22,1.735c0.771,0.512,2.181,1.118,3.077,1.341
	c1.443,0.751,2.898,1.512,4.352,2.273c7.894,4.972,13.884,10.376,19.405,17.932C112.113,35.198,115.35,44.881,115.928,56.511
	L115.928,56.511z M78.064,33.628c0.019-2.747,0.039-5.492,0.064-8.229c-12.891,0.086-12.891,0.086-14.22,0.222
	c-2.243,0.51-3.605,0.981-5.656,2.119c-4.904,3.556-7.167,7.793-8.131,13.739c-0.04,2.979-0.068,5.956-0.098,8.942
	c-4.104,0-8.209,0-12.313,0c0,3.969,0,7.941,0,11.911c4.104,0,8.209,0,12.313,0c0,11.86,0,23.721,0,35.591c4.596,0,9.193,0,13.788,0
	c0-11.87,0-23.732,0-35.591c4.77,0,9.538,0,14.317,0c0-3.97,0-7.942,0-11.911c-4.779,0-9.547,0-14.317,0
	c0.097-9.209,0.097-9.209,0.223-9.877c0.374-0.867,0.654-1.754,1.512-2.234c0.771-0.107,0.771-0.107,8.564-0.204
	c0.935-0.028,1.87-0.048,2.815-0.067c0.358-0.03,0.712-0.049,1.07-0.068C78.015,36.517,78.035,35.073,78.064,33.628z"/>
</svg>
