<?xml version="1.0" encoding="utf-8"?>
<!-- Generator: Adobe Illustrator 17.0.0, SVG Export Plug-In . SVG Version: 6.00 Build 0)  -->
<!DOCTYPE svg PUBLIC "-//W3C//DTD SVG 1.1//EN" "http://www.w3.org/Graphics/SVG/1.1/DTD/svg11.dtd">
<svg version="1.1" id="Layer_1" xmlns="http://www.w3.org/2000/svg" xmlns:xlink="http://www.w3.org/1999/xlink" x="0px" y="0px"
	 width="114.204px" height="115.587px" viewBox="4336.598 3202.743 114.204 115.587"
	 enable-background="new 4336.598 3202.743 114.204 115.587" xml:space="preserve">
<path fill="#00A651" d="M4393.699,3316.947c31.45,0,57.103-25.654,57.103-57.104c0-31.449-25.653-57.1-57.103-57.1
	s-57.101,25.65-57.101,57.1C4336.598,3291.293,4362.249,3316.947,4393.699,3316.947z"/>
<path fill="#FDB913" d="M4409.095,3287.657h-30.491c-1.965,0-3.805-0.515-5.213-1.071c-2.947-1.163-5.146-3.271-6.37-6.195
	c-0.606-1.452-1.137-3.318-1.137-5.298v-30.799c0-3.639,1.582-6.731,4.02-9.156c0.98-0.973,2.711-1.876,4.192-2.394
	c1.587-0.556,3.812-0.858,5.887-0.858h27.731c6.453,0,11.363,2.613,13.429,8.785c0.639,1.904,0.82,4.217,0.82,6.687v24.671
	c0,3.502-0.302,7.256-2.335,10.073c-0.284,0.39-0.483,0.657-0.792,1.048C4416.803,3285.773,4412.565,3287.657,4409.095,3287.657
	L4409.095,3287.657z M4359.298,3247.053v25.434c0,6.744,1.348,11.677,5.857,16.204c4.479,4.491,10.06,5.556,16.666,5.556h23.749
	c5.009,0,9.315-0.48,13.267-2.822c1.093-0.649,2.24-1.412,3.092-2.273c0.925-0.935,1.776-1.701,2.552-2.81
	c2.444-3.5,3.614-7.749,3.614-12.475v-28.344c0-3.115-0.655-6.119-1.599-8.363c-3.083-7.321-9.913-11.709-18.168-11.709h-29.266
	c-5.435,0-9.475,1.675-13.309,4.771c-0.518,0.419-0.912,0.721-1.354,1.249C4360.475,3236.158,4359.298,3240.455,4359.298,3247.053z"
	/>
<path fill="#FDB913" d="M4382.435,3260.078c0-2.67,0.515-4.602,1.897-6.684c0.525-0.792,1.135-1.547,1.866-2.117
	c0.343-0.263,0.407-0.385,0.74-0.639c0.575-0.435,1.055-0.698,1.727-1.033c4.398-2.187,9.614-1.344,13.04,2.079
	c3.919,3.926,4.368,9.986,1.173,14.585l-1.252,1.51c-0.295,0.27-0.371,0.263-0.686,0.537c-0.877,0.769-1.376,1.067-2.517,1.62
	c-3.02,1.462-6.417,1.285-9.447-0.009C4385.457,3268.425,4382.435,3264.213,4382.435,3260.078L4382.435,3260.078z
	 M4375.998,3258.852c0,4.201,0.786,7.733,3.131,10.968c3.089,4.263,8.193,7.572,13.725,7.572c4.742,0,7.901-0.814,11.314-3.392
	c2.469-1.866,3.858-3.538,5.321-6.173c3.56-6.405,2.298-15.095-3.268-20.659c-5.114-5.111-12.773-6.672-19.388-3.836
	C4380.841,3245.9,4375.998,3252.145,4375.998,3258.852z"/>
<path fill="#FDB913" d="M4408.021,3241.539c0,2.164,1.772,3.922,3.883,4.071c3.707,0.26,5.649-4.333,3.08-6.897
	c-2.06-2.057-5.562-1.278-6.598,1.195C4408.269,3240.188,4408.021,3241.236,4408.021,3241.539z"/>
</svg>
