<?xml version="1.0" encoding="utf-8"?>
<!-- Generator: Adobe Illustrator 17.0.0, SVG Export Plug-In . SVG Version: 6.00 Build 0)  -->
<!DOCTYPE svg PUBLIC "-//W3C//DTD SVG 1.1//EN" "http://www.w3.org/Graphics/SVG/1.1/DTD/svg11.dtd">
<svg version="1.1" id="Layer_1" xmlns="http://www.w3.org/2000/svg" xmlns:xlink="http://www.w3.org/1999/xlink" x="0px" y="0px"
	 width="114.245px" height="114.245px" viewBox="4336.578 3202.451 114.245 114.245"
	 enable-background="new 4336.578 3202.451 114.245 114.245" xml:space="preserve">
<path fill="#00A651" d="M4393.701,3202.451c31.548,0,57.122,25.574,57.122,57.122c0,31.549-25.574,57.123-57.122,57.123
	c-31.551,0-57.123-25.574-57.123-57.123C4336.578,3228.025,4362.149,3202.451,4393.701,3202.451L4393.701,3202.451z
	 M4419.742,3239.496c0.546-0.695,0.311-0.349,0.924-0.998c1.908-2.022,3.447-3.844,4.159-6.56c-2.744,1.111-4.683,2.36-8.13,3.234
	c-4.471-3.179-9.545-6.95-16.782-2.697c-4.849,2.849-7.072,8.376-6.859,16.048c-12.241-0.754-20.035-6.038-27.195-14.146
	l-0.576-0.582c-4.764,6.998,0.016,15.548,3.593,19.284l-5.653-1.752c0.617,8.839,4.13,10.461,10.137,14.741l-5.349,0.006
	c2.139,8.776,9.03,8.395,12.009,10.435c-4.82,3.816-11.205,5.667-19.021,5.629c7.721,4.448,13.063,7.25,24.331,6.213
	c10.419-0.96,19.615-7.059,24.658-13.546c10.664-13.723,7.933-22.347,9.791-28.642c0.463-1.581,5.376-4.897,6.617-8.452
	L4419.742,3239.496z"/>
</svg>
