<?xml version="1.0" encoding="utf-8"?>
<!-- Generator: Adobe Illustrator 17.0.0, SVG Export Plug-In . SVG Version: 6.00 Build 0)  -->
<!DOCTYPE svg PUBLIC "-//W3C//DTD SVG 1.1//EN" "http://www.w3.org/Graphics/SVG/1.1/DTD/svg11.dtd">
<svg version="1.1" id="Layer_1" xmlns="http://www.w3.org/2000/svg" xmlns:xlink="http://www.w3.org/1999/xlink" x="0px" y="0px"
	 width="121px" height="114.098px" viewBox="0 0 121 114.098" enable-background="new 0 0 121 114.098" xml:space="preserve">
<g>
	<path fill-rule="evenodd" clip-rule="evenodd" fill="#FED103" d="M52.392,91.075c-1.685-12.328,16.832-13.89,18.239-2.727
		C72.197,100.8,53.908,102.18,52.392,91.075L52.392,91.075z M61.543,77.714c1.46,0.154,1.852-0.625,2.395-1.571
		c1.296-2.263,2.507-6.174,3.145-8.72c2.427-9.661,2.218-18.647,3.434-28.25c0.737-5.795-0.119-9.137-4.062-11.204
		c-4.12-2.157-9.574-0.859-11.85,1.799c-2.665,3.119-1.821,8.842-1.404,13.613c0.461,5.299,1.845,15.537,2.978,20.952
		c0.446,2.125,1.225,4.457,1.563,6.351c-0.01,1.156,0.683,3.278,1.105,4.275C59.439,76.339,60.04,77.595,61.543,77.714
		L61.543,77.714z M31.609,107.147c5.144,0,12.242-0.769,17.155-0.652l52.006-0.005c6.082,0,11.081-1.547,13.567-7.671
		c1.097-2.709,1.147-6.269-0.087-9.023c-1.261-2.804-9.81-17.259-11.723-20.557L86.769,41.933c-2.653-4.643-5.221-9.187-7.88-13.649
		c-2.645-4.439-5.159-9.375-7.918-13.609c-1.32-2.03-3.177-3.733-5.936-4.826c-2.687-1.065-6.424-0.919-9.074,0.292
		c-4.775,2.189-7.07,7.244-9.592,11.76L14.832,76.493c-1.794,3.26-6.924,11.358-7.721,13.812
		c-2.245,6.921,1.092,12.274,5.435,14.738c2.718,1.539,5.477,1.166,8.732,1.603C24.752,107.11,28.031,107.147,31.609,107.147z"/>
	<path fill-rule="evenodd" clip-rule="evenodd" fill="#ED1C24" d="M31.609,107.147c-3.578,0-6.856-0.037-10.33-0.501
		c-3.256-0.437-6.015-0.064-8.732-1.603c-4.343-2.464-7.68-7.817-5.435-14.738c0.797-2.454,5.927-10.552,7.721-13.812l31.537-54.591
		c2.522-4.516,4.817-9.571,9.592-11.76c2.65-1.211,6.387-1.357,9.074-0.292c2.759,1.094,4.616,2.796,5.936,4.826
		c2.759,4.234,5.273,9.169,7.918,13.609c2.658,4.462,5.226,9.005,7.88,13.649l15.757,27.307
		c1.913,3.297,10.462,17.752,11.723,20.557c1.233,2.754,1.184,6.314,0.087,9.023c-2.486,6.124-7.484,7.671-13.567,7.671
		l-52.006,0.005C43.851,106.378,36.753,107.147,31.609,107.147L31.609,107.147z M63.427,4.037h-3.67
		c-1.375,0.66-5.058,0.226-9.696,4.214c-3.106,2.673-3.962,5.209-5.796,8.255C37.413,27.87,30.807,40.444,23.892,51.981
		c-1.474,2.464-3.692,6.816-5.013,8.846c-1.829,2.827-3.333,6.137-5.132,8.936l-10.16,17.76c-4.704,7.435-0.771,15.963,4.07,19.673
		c2.869,2.199,6.246,3.569,10.266,3.641c4.648,0.087,9.392,0.01,14.053,0.005l69.703-0.008c4.73,0.003,7.566-0.109,11.35-2.737
		c0.75-0.524,1.251-0.928,1.916-1.566l1.898-2.273c0.866-1.16,1.571-2.795,2.08-4.132l0.769-2.769
		c0.561-3.092,0.369-6.365-0.728-9.283c-2.464-6.524-9.015-17.405-13.162-23.478c-1.507-2.204-5.755-10.035-7.052-12.202
		c-3.501-5.869-7.288-13.07-10.726-18.788c-0.27-0.451-0.437-0.679-0.702-1.161L79.758,19.21
		c-3.355-5.718-5.144-11.04-10.795-13.662c-0.861-0.402-1.556-0.652-2.559-0.933C65.673,4.405,63.961,4.241,63.427,4.037z"/>
	<path fill-rule="evenodd" clip-rule="evenodd" fill="#FFFFFF" d="M61.903,75.3c3.413-2.385,5.376-24.867,6.155-31.518
		c0.469-4.007,2.008-9.616-0.834-12.77c-2.563-2.846-8.209-2.933-10.926-0.096c-1.543,1.617-1.529,3.32-1.457,6.151
		c0.186,7.333,2.754,25.813,4.584,33.144C59.854,71.917,60.39,74.935,61.903,75.3z"/>
	<path fill-rule="evenodd" clip-rule="evenodd" fill="#ED1C24" d="M61.903,75.3c-1.513-0.365-2.049-3.382-2.478-5.09
		c-1.829-7.33-4.398-25.81-4.584-33.144c-0.072-2.832-0.087-4.534,1.457-6.151c2.718-2.836,8.363-2.75,10.926,0.096
		c2.841,3.154,1.303,8.763,0.834,12.77C67.279,50.433,65.316,72.915,61.903,75.3L61.903,75.3z M57.742,70.684
		c0.509,1.139,0.914,2.677,1.489,3.916c0.773,1.658,1.042,2.184,2.313,3.114c1.46,0.154,1.852-0.625,2.395-1.571
		c1.296-2.263,2.507-6.174,3.145-8.72c2.427-9.661,2.218-18.647,3.434-28.25c0.737-5.795-0.119-9.137-4.062-11.204
		c-4.12-2.157-9.574-0.859-11.85,1.799c-2.665,3.119-1.821,8.842-1.404,13.613c0.461,5.299,1.845,15.537,2.978,20.952
		C56.626,66.458,57.405,68.79,57.742,70.684z"/>
	<path fill-rule="evenodd" clip-rule="evenodd" fill="#FFFFFF" d="M59.976,82.93c-9.11,1.839-6.664,15.239,2.905,13.641
		C72.173,95.013,69.778,80.95,59.976,82.93z"/>
	<path fill-rule="evenodd" clip-rule="evenodd" fill="#ED1C24" d="M59.976,82.93c9.802-1.98,12.197,12.083,2.905,13.641
		C53.312,98.169,50.866,84.769,59.976,82.93L59.976,82.93z M52.392,91.075c1.516,11.105,19.805,9.725,18.239-2.727
		C69.224,77.185,50.707,78.747,52.392,91.075z"/>
	<path fill-rule="evenodd" clip-rule="evenodd" fill="#F9E8C6" d="M61.543,77.714c-1.27-0.93-1.54-1.457-2.313-3.114
		c-0.575-1.238-0.98-2.777-1.489-3.916c-0.01,1.156,0.683,3.278,1.105,4.275C59.439,76.339,60.04,77.595,61.543,77.714z"/>
</g>
</svg>
