<?xml version="1.0" encoding="utf-8"?>
<!-- Generator: Adobe Illustrator 17.0.0, SVG Export Plug-In . SVG Version: 6.00 Build 0)  -->
<!DOCTYPE svg PUBLIC "-//W3C//DTD SVG 1.1//EN" "http://www.w3.org/Graphics/SVG/1.1/DTD/svg11.dtd">
<svg version="1.1" id="Layer_1" xmlns="http://www.w3.org/2000/svg" xmlns:xlink="http://www.w3.org/1999/xlink" x="0px" y="0px"
	 width="121px" height="114.098px" viewBox="0 0 121 114.098" enable-background="new 0 0 121 114.098" xml:space="preserve">
<g>
	<path fill-rule="evenodd" clip-rule="evenodd" fill="#019A49" d="M112.796,6.779c-0.05-0.866-0.239-0.654,0.655-0.532l-0.367-1.081
		l-0.578-0.582l-0.553-0.59l-0.522-0.645l-0.561-0.603l-0.571-0.582l-1.047,0.287c-2.131,0.837-4.258,2.621-6.03,3.948L87.47,19.659
		c-6.777,6.727-12.929,13.088-18.638,19.974L51.895,61.11c-4.919,7.406-9.723,15.127-14.266,23.131
		c-2.54-2.653-12.262-38.276-32.383-12.362c2.772,2.641,6.135,5.054,8.652,7.877c6.741,7.572,15.533,22.987,17.675,32.996
		l3.914-2.949c0.941-0.853,2.03-1.765,3.144-2.666c11.662-9.455,7.557-4.315,15.094-19.828l12.05-22.582
		c1.625-2.7,2.445-4.344,4.344-7.02c1.842-2.598,2.603-4.534,4.653-7.338c12.43-17.007,11.671-16.139,26.162-32.348
		C104.202,14.364,108.812,9.753,112.796,6.779z"/>
	<path fill-rule="evenodd" clip-rule="evenodd" fill="#019A49" d="M110.298,2.164l0.571,0.582l0.561,0.603l0.522,0.645l0.553,0.59
		l0.578,0.582l0.367,1.081c-0.895-0.122-0.706-0.334-0.655,0.532l0.655-0.532c1.907,0.233,0.21-0.868-0.367-1.081l-0.578-0.582
		l-0.553-0.59l-0.522-0.645l-0.561-0.603L110.298,2.164c-0.049-1.825-0.899-0.078-1.047,0.287L110.298,2.164z"/>
</g>
</svg>
