<?xml version="1.0" encoding="utf-8"?>
<!-- Generator: Adobe Illustrator 25.0.0, SVG Export Plug-In . SVG Version: 6.00 Build 0)  -->
<svg version="1.1" id="Layer_1" xmlns="http://www.w3.org/2000/svg" xmlns:xlink="http://www.w3.org/1999/xlink" x="0px" y="0px"
	 viewBox="0 0 181.58 41.51" style="enable-background:new 0 0 181.58 41.51;" xml:space="preserve">
<style type="text/css">
	.st0{fill:#FFFFFF;}
</style>
<g>
	<g>
		<g>
			<path class="st0" d="M0.16,12.1h1.29v16.58h10.22v1.17H0.16V12.1z"/>
			<path class="st0" d="M27.39,24.85H17.1l-2.26,4.99h-1.39l8.16-17.75h1.29l8.16,17.75h-1.39L27.39,24.85z M26.91,23.76
				l-4.67-10.24L17.6,23.76H26.91z"/>
			<path class="st0" d="M47.29,12.1v17.75h-1.06L34.13,14.43v15.42h-1.29V12.1h1.09L46,27.52V12.1H47.29z"/>
			<path class="st0" d="M49.94,12.1h7.02c1.84,0,3.48,0.38,4.91,1.14c1.43,0.76,2.54,1.81,3.33,3.16c0.79,1.34,1.19,2.87,1.19,4.58
				c0,1.71-0.4,3.23-1.19,4.58c-0.79,1.34-1.91,2.4-3.33,3.16c-1.43,0.76-3.06,1.14-4.91,1.14h-7.02V12.1z M56.86,28.68
				c1.64,0,3.08-0.33,4.34-0.98c1.25-0.65,2.21-1.56,2.89-2.73c0.68-1.17,1.01-2.5,1.01-4.01c0-1.5-0.34-2.84-1.01-4.01
				c-0.68-1.17-1.64-2.07-2.89-2.73c-1.25-0.65-2.7-0.98-4.34-0.98h-5.63v15.42H56.86z"/>
			<path class="st0" d="M80.65,24.85H70.35l-2.26,4.99H66.7l8.16-17.75h1.29l8.16,17.75h-1.39L80.65,24.85z M80.16,23.76L75.5,13.52
				l-4.64,10.24H80.16z"/>
			<path class="st0" d="M98.13,29.43c-1.17-0.45-2.09-1.03-2.75-1.74l0.58-0.96c0.63,0.66,1.47,1.2,2.52,1.61
				c1.06,0.41,2.17,0.62,3.33,0.62c1.69,0,2.97-0.32,3.83-0.96c0.86-0.64,1.29-1.48,1.29-2.51c0-0.79-0.23-1.43-0.68-1.9
				c-0.46-0.47-1.02-0.84-1.7-1.09c-0.68-0.25-1.59-0.52-2.74-0.79c-1.3-0.32-2.34-0.63-3.13-0.94c-0.79-0.3-1.45-0.77-2-1.41
				c-0.55-0.63-0.82-1.48-0.82-2.55c0-0.86,0.23-1.65,0.68-2.37c0.46-0.72,1.15-1.29,2.09-1.71c0.94-0.42,2.06-0.64,3.47-0.65
				c1.03-0.01,1.98,0.07,2.95,0.27c0.87,0.19,1.81,0.42,2.67,0.85l-0.43,0.93c-0.98-0.42-1.61-0.6-2.71-0.78
				c-0.88-0.14-1.56-0.19-2.49-0.18c-1.64,0.02-2.83,0.4-3.67,1.06c-0.85,0.66-1.27,1.51-1.27,2.56c0,0.79,0.23,1.43,0.68,1.9
				c0.46,0.47,1.02,0.84,1.7,1.09c0.68,0.25,1.6,0.52,2.76,0.81c1.3,0.32,2.34,0.63,3.12,0.94c0.78,0.3,1.44,0.76,1.99,1.38
				c0.55,0.62,0.82,1.45,0.82,2.5c0,0.86-0.23,1.65-0.7,2.36c-0.47,0.71-1.18,1.28-2.14,1.7c-0.96,0.42-2.15,0.63-3.55,0.63
				C100.54,30.1,99.3,29.88,98.13,29.43z"/>
			<path class="st0" d="M116.39,13.27H110V12.1h14.07v1.17h-6.39v16.58h-1.29V13.27z"/>
			<path class="st0" d="M127.71,28.02c-1.24-1.3-1.86-3.2-1.86-5.7V12.1h1.29v10.17c0,2.18,0.5,3.81,1.5,4.89
				c1,1.08,2.44,1.62,4.34,1.62c1.88,0,3.31-0.54,4.31-1.62c1-1.08,1.5-2.71,1.5-4.89V12.1h1.29v10.22c0,2.5-0.63,4.4-1.88,5.7
				c-1.25,1.3-3,1.95-5.25,1.95C130.69,29.98,128.95,29.32,127.71,28.02z"/>
			<path class="st0" d="M141.84,12.1h7.02c1.84,0,3.48,0.38,4.91,1.14c1.43,0.76,2.54,1.81,3.33,3.16c0.79,1.34,1.19,2.87,1.19,4.58
				c0,1.71-0.4,3.23-1.19,4.58c-0.79,1.34-1.91,2.4-3.33,3.16c-1.43,0.76-3.06,1.14-4.91,1.14h-7.02V12.1z M148.76,28.68
				c1.64,0,3.08-0.33,4.34-0.98c1.25-0.65,2.21-1.56,2.89-2.73c0.68-1.17,1.01-2.5,1.01-4.01c0-1.5-0.34-2.84-1.01-4.01
				c-0.68-1.17-1.64-2.07-2.89-2.73c-1.25-0.65-2.7-0.98-4.34-0.98h-5.63v15.42H148.76z"/>
			<path class="st0" d="M167.64,28.8c-1.4-0.79-2.51-1.86-3.31-3.23c-0.8-1.37-1.2-2.9-1.2-4.59c0-1.69,0.4-3.22,1.2-4.59
				c0.8-1.37,1.91-2.45,3.31-3.23c1.4-0.79,2.97-1.18,4.72-1.18c1.74,0,3.31,0.39,4.72,1.17c1.4,0.78,2.51,1.85,3.31,3.22
				c0.8,1.37,1.2,2.91,1.2,4.61c0,1.71-0.4,3.25-1.2,4.61c-0.8,1.37-1.91,2.44-3.31,3.22c-1.4,0.78-2.98,1.17-4.72,1.17
				C170.61,29.98,169.04,29.58,167.64,28.8z M176.38,27.77c1.2-0.68,2.15-1.61,2.84-2.8c0.69-1.19,1.04-2.52,1.04-3.99
				c0-1.47-0.35-2.8-1.04-3.99c-0.69-1.19-1.64-2.13-2.84-2.8c-1.2-0.68-2.54-1.01-4.03-1.01c-1.49,0-2.84,0.34-4.04,1.01
				c-1.21,0.68-2.16,1.61-2.85,2.8c-0.69,1.19-1.04,2.52-1.04,3.99c0,1.47,0.35,2.8,1.04,3.99c0.69,1.19,1.64,2.13,2.85,2.8
				c1.21,0.68,2.56,1.01,4.04,1.01C173.84,28.78,175.18,28.45,176.38,27.77z"/>
		</g>
	</g>
	<g>
		<rect y="37.05" class="st0" width="0.58" height="3.73"/>
		<path class="st0" d="M4.98,37.96c0.12-0.12,0.27-0.21,0.43-0.28c0.32-0.13,0.71-0.13,1.05-0.02c0.15,0.06,0.3,0.15,0.42,0.27
			L7,38.05l0.38-0.39l-0.11-0.12c-0.17-0.18-0.37-0.31-0.6-0.4c-0.47-0.17-1.04-0.17-1.49,0.01c-0.23,0.09-0.44,0.23-0.61,0.4
			c-0.18,0.17-0.31,0.37-0.41,0.6c-0.1,0.23-0.14,0.48-0.14,0.75c0,0.27,0.05,0.52,0.14,0.75c0.1,0.23,0.23,0.43,0.41,0.6
			c0.17,0.17,0.38,0.3,0.62,0.4c0.23,0.09,0.49,0.14,0.76,0.14c0.26,0,0.5-0.04,0.73-0.13c0.23-0.09,0.43-0.22,0.6-0.4l0.11-0.11
			L7,39.76l-0.12,0.12c-0.13,0.13-0.27,0.22-0.42,0.27c-0.34,0.12-0.74,0.11-1.05-0.02c-0.17-0.07-0.31-0.16-0.43-0.28
			c-0.12-0.12-0.22-0.27-0.28-0.42c-0.07-0.16-0.1-0.33-0.1-0.53s0.03-0.37,0.1-0.53C4.76,38.23,4.86,38.08,4.98,37.96z"/>
		<path class="st0" d="M13.64,37.56c-0.17-0.17-0.38-0.3-0.61-0.4c-0.47-0.19-1.06-0.19-1.53,0c-0.23,0.09-0.44,0.23-0.62,0.4
			c-0.18,0.17-0.31,0.38-0.41,0.6c-0.1,0.23-0.14,0.48-0.14,0.75s0.05,0.52,0.14,0.75c0.09,0.23,0.23,0.43,0.41,0.6
			c0.17,0.17,0.38,0.31,0.62,0.4c0.24,0.09,0.49,0.14,0.76,0.14c0.27,0,0.53-0.05,0.76-0.14c0.23-0.09,0.44-0.23,0.61-0.4
			c0.17-0.17,0.31-0.37,0.41-0.6c0.1-0.23,0.15-0.48,0.15-0.75c0-0.27-0.05-0.52-0.15-0.75C13.95,37.93,13.81,37.73,13.64,37.56z
			 M11.72,40.14c-0.17-0.07-0.3-0.16-0.43-0.28c-0.12-0.12-0.22-0.26-0.28-0.42c-0.07-0.16-0.1-0.34-0.1-0.53
			c0-0.19,0.03-0.37,0.1-0.53c0.07-0.16,0.16-0.3,0.28-0.42c0.12-0.12,0.27-0.21,0.43-0.28c0.17-0.07,0.35-0.1,0.54-0.1
			c0.19,0,0.38,0.03,0.54,0.1c0.16,0.07,0.3,0.16,0.43,0.28c0.12,0.12,0.21,0.26,0.28,0.42c0.07,0.16,0.1,0.34,0.1,0.53
			c0,0.19-0.03,0.37-0.1,0.53c-0.07,0.16-0.16,0.3-0.28,0.42c-0.12,0.12-0.26,0.21-0.43,0.28C12.48,40.28,12.05,40.28,11.72,40.14z"
			/>
		<polygon class="st0" points="20.73,37.05 20.15,37.05 20.15,39.68 18.09,37.05 17.63,37.05 17.63,37.35 17.6,37.35 17.63,37.4 
			17.63,40.78 18.21,40.78 18.21,38.14 20.28,40.78 20.73,40.78 20.73,40.47 20.77,40.47 20.73,40.42 		"/>
		<rect x="24.5" y="37.05" class="st0" width="0.58" height="3.73"/>
		<path class="st0" d="M29.48,37.96c0.12-0.12,0.27-0.21,0.43-0.28c0.32-0.13,0.71-0.13,1.05-0.02c0.15,0.06,0.3,0.15,0.42,0.27
			l0.12,0.12l0.38-0.39l-0.11-0.12c-0.17-0.18-0.37-0.31-0.6-0.4c-0.47-0.17-1.04-0.17-1.49,0.01c-0.23,0.09-0.44,0.23-0.61,0.4
			s-0.31,0.37-0.41,0.6c-0.1,0.23-0.14,0.48-0.14,0.75c0,0.27,0.05,0.52,0.14,0.75c0.1,0.23,0.23,0.43,0.41,0.6
			c0.17,0.17,0.38,0.3,0.62,0.4c0.23,0.09,0.49,0.14,0.76,0.14c0.26,0,0.5-0.04,0.73-0.13c0.23-0.09,0.43-0.22,0.6-0.4l0.11-0.11
			l-0.38-0.39l-0.12,0.12c-0.13,0.13-0.27,0.22-0.42,0.27c-0.34,0.12-0.74,0.11-1.05-0.02c-0.17-0.07-0.31-0.16-0.43-0.28
			c-0.12-0.12-0.22-0.26-0.28-0.42c-0.07-0.16-0.1-0.34-0.1-0.53s0.03-0.37,0.1-0.53C29.26,38.22,29.35,38.08,29.48,37.96z"/>
		<rect x="39.38" y="37.05" class="st0" width="0.58" height="3.73"/>
		<polygon class="st0" points="46.82,37.05 46.25,37.05 46.25,39.68 44.18,37.05 43.73,37.05 43.73,37.35 43.69,37.35 43.73,37.4 
			43.73,40.78 44.3,40.78 44.3,38.14 46.37,40.78 46.82,40.78 46.82,40.47 46.86,40.47 46.82,40.42 		"/>
		<polygon class="st0" points="50.02,37.6 51.24,37.6 51.24,40.78 51.82,40.78 51.82,37.6 53.04,37.6 53.04,37.05 50.02,37.05 		"/>
		<polygon class="st0" points="56.81,39.16 58.62,39.16 58.62,38.61 56.81,38.61 56.81,37.6 58.83,37.6 58.83,37.05 56.23,37.05 
			56.23,40.78 58.91,40.78 58.91,40.22 56.81,40.22 		"/>
		<path class="st0" d="M65.12,39.06c0.13-0.2,0.19-0.43,0.19-0.7c0-0.27-0.06-0.51-0.19-0.71c-0.13-0.2-0.31-0.35-0.54-0.45
			c-0.22-0.1-0.49-0.15-0.8-0.15h-0.8v-0.16l-0.14,0.16h-0.43v0.47l-0.08,0.08h0.08v1.51H62.3l0.09,0.09v0.37l-0.09,0.09h0.09v1.11
			h0.58v-1.11h0.8c0.09,0,0.17,0,0.25-0.01l0.8,1.12h0.69L64.6,39.5C64.82,39.39,64.99,39.24,65.12,39.06z M62.97,37.6h0.8
			c0.33,0,0.57,0.07,0.73,0.2c0.15,0.13,0.22,0.31,0.22,0.56c0,0.24-0.07,0.42-0.23,0.55c-0.16,0.13-0.4,0.2-0.73,0.2h-0.8V37.6z"/>
		<rect x="68.79" y="37.05" class="st0" width="0.58" height="3.73"/>
		<path class="st0" d="M76.12,37.56c-0.17-0.17-0.38-0.3-0.61-0.4c-0.46-0.18-1.05-0.19-1.53,0c-0.23,0.09-0.44,0.23-0.62,0.4
			c-0.18,0.17-0.31,0.38-0.41,0.6c-0.09,0.23-0.14,0.48-0.14,0.75s0.05,0.52,0.14,0.75c0.09,0.23,0.23,0.43,0.41,0.6
			c0.17,0.17,0.38,0.31,0.62,0.4c0.24,0.09,0.49,0.14,0.76,0.14c0.27,0,0.53-0.05,0.76-0.14c0.23-0.09,0.44-0.23,0.61-0.4
			c0.17-0.17,0.31-0.37,0.41-0.6c0.1-0.23,0.15-0.48,0.15-0.75c0-0.27-0.05-0.52-0.15-0.75C76.43,37.93,76.29,37.73,76.12,37.56z
			 M74.2,40.14c-0.16-0.07-0.31-0.16-0.43-0.28c-0.12-0.12-0.22-0.26-0.28-0.42c-0.07-0.16-0.1-0.34-0.1-0.53
			c0-0.19,0.03-0.37,0.1-0.53c0.07-0.16,0.16-0.3,0.28-0.42c0.12-0.12,0.26-0.21,0.43-0.28c0.17-0.07,0.35-0.1,0.54-0.1
			c0.19,0,0.38,0.03,0.54,0.1c0.16,0.07,0.3,0.16,0.42,0.28c0.12,0.12,0.21,0.26,0.28,0.42c0.07,0.16,0.1,0.34,0.1,0.53
			c0,0.19-0.03,0.37-0.1,0.53c-0.07,0.16-0.16,0.3-0.28,0.42c-0.12,0.12-0.26,0.21-0.43,0.28C74.96,40.28,74.53,40.28,74.2,40.14z"
			/>
		<path class="st0" d="M82.84,39.06c0.13-0.2,0.19-0.43,0.19-0.7c0-0.27-0.06-0.51-0.19-0.71c-0.13-0.2-0.31-0.35-0.54-0.45
			c-0.22-0.1-0.49-0.15-0.8-0.15h-0.81v-0.16l-0.15,0.16h-0.43v0.47l-0.07,0.08h0.07v1.51h-0.09l0.09,0.09v0.37l-0.09,0.09h0.09
			v1.11h0.58v-1.11h0.81c0.09,0,0.17,0,0.25-0.01l0.8,1.12h0.69l-0.91-1.28C82.55,39.39,82.72,39.24,82.84,39.06z M80.69,37.6h0.81
			c0.33,0,0.57,0.07,0.73,0.2c0.15,0.13,0.22,0.31,0.22,0.56c0,0.24-0.07,0.42-0.23,0.55c-0.16,0.13-0.4,0.2-0.73,0.2h-0.81V37.6z"
			/>
		<path class="st0" d="M88.82,39.22c-0.09-0.13-0.22-0.24-0.37-0.31c-0.14-0.07-0.29-0.13-0.44-0.17c-0.15-0.04-0.3-0.08-0.46-0.12
			c-0.14-0.03-0.27-0.07-0.39-0.12c-0.1-0.04-0.18-0.1-0.24-0.17c-0.05-0.06-0.07-0.14-0.07-0.24c0-0.09,0.02-0.17,0.08-0.25
			c0.05-0.07,0.13-0.14,0.24-0.18c0.21-0.09,0.54-0.12,0.9-0.01c0.15,0.04,0.28,0.11,0.41,0.19l0.16,0.11l0.23-0.5l-0.11-0.08
			c-0.14-0.1-0.32-0.19-0.52-0.25c-0.2-0.06-0.4-0.09-0.6-0.09c-0.3,0-0.55,0.05-0.76,0.14c-0.21,0.1-0.36,0.23-0.46,0.39
			c-0.1,0.16-0.15,0.34-0.15,0.53c0,0.21,0.05,0.39,0.14,0.53c0.09,0.13,0.21,0.24,0.36,0.32c0.14,0.07,0.29,0.13,0.45,0.17
			c0.15,0.04,0.31,0.08,0.46,0.12c0.14,0.03,0.27,0.07,0.39,0.12c0.1,0.04,0.18,0.1,0.25,0.17c0.05,0.06,0.07,0.14,0.07,0.24
			c0,0.09-0.02,0.17-0.08,0.24c-0.05,0.08-0.13,0.14-0.25,0.18c-0.24,0.1-0.71,0.11-1.07-0.03c-0.18-0.07-0.32-0.16-0.42-0.27
			l-0.15-0.15l-0.29,0.47l0.08,0.09c0.14,0.16,0.34,0.28,0.58,0.38c0.24,0.09,0.5,0.14,0.77,0.14c0.31,0,0.56-0.05,0.76-0.14
			c0.21-0.1,0.37-0.23,0.47-0.39c0.11-0.16,0.16-0.34,0.16-0.53C88.97,39.53,88.92,39.35,88.82,39.22z"/>
	</g>
	<g>
		<rect x="0.16" y="3.94" class="st0" width="172.18" height="0.88"/>
	</g>
	<g>
		<rect x="95.37" y="37.19" class="st0" width="85.45" height="0.88"/>
	</g>
	<g>
		<rect x="160.27" class="st0" width="0.88" height="8.85"/>
	</g>
	<g>
		<rect x="160.27" y="12.15" class="st0" width="0.88" height="17.77"/>
	</g>
	<g>
		<rect x="160.27" y="33.12" class="st0" width="0.88" height="8.38"/>
	</g>
</g>
</svg>
