<?xml version="1.0" encoding="utf-8"?>
<!-- Generator: Adobe Illustrator 17.0.0, SVG Export Plug-In . SVG Version: 6.00 Build 0)  -->
<!DOCTYPE svg PUBLIC "-//W3C//DTD SVG 1.1//EN" "http://www.w3.org/Graphics/SVG/1.1/DTD/svg11.dtd">
<svg version="1.1" id="Layer_1" xmlns="http://www.w3.org/2000/svg" xmlns:xlink="http://www.w3.org/1999/xlink" x="0px" y="0px"
	 width="3011.692px" height="3192.308px" viewBox="0 0 3011.692 3192.308" enable-background="new 0 0 3011.692 3192.308"
	 xml:space="preserve">
<path fill-rule="evenodd" clip-rule="evenodd" fill="#00A651" d="M1538.499,755.332c270.821,0,490.432,219.611,490.432,490.424
	c0,270.821-219.611,490.432-490.432,490.432s-490.424-219.611-490.424-490.432C1048.074,974.943,1267.678,755.332,1538.499,755.332
	L1538.499,755.332z M1538.499,731.723c-283.865,0-514.033,230.169-514.033,514.033c0,283.873,230.169,514.041,514.033,514.041
	c283.848,0,514.041-230.169,514.041-514.041C2052.54,961.891,1822.347,731.723,1538.499,731.723z"/>
<path fill-rule="evenodd" clip-rule="evenodd" fill="#00A651" d="M1899.555,1607.408
	c-95.233,95.225-221.873,147.666-356.559,147.666c-134.694,0-261.31-52.441-356.567-147.666
	c-95.225-95.257-147.69-221.897-147.69-356.559c0-134.694,52.465-261.334,147.69-356.567c2.237-2.229,4.587-4.329,6.872-6.518
	c-1.778,5.472-3.742,10.831-6.888,15.554c-7.508,11.153-20.028,15.651-27.874,26.136c-7.146,9.535-12.891,23.995-15.562,34.722
	c-2.873,11.611-1.11,25.701-5.198,37.289c-5.198,14.693-14.621,23.432-12.867,40.467c20.487,6.091,11.587-30.312,28.856-32.187
	c5.48,13.599,1.875,38.85,0.322,53.672c-2.14,20.374-6.115,25.412,6.043,42.905c9.648,13.848,12.843,23.11,31.479,25.299
	c17.083,2.004,24.18,9.761,31.294,26.232c13.189,2.8,21.171,4.973,22.853,19.57c5.729,3.195,16.472,13.478,22.515,15.056
	c8.739,2.301,23.335-10.155,31.591-0.547c13.752,16.013-17.445,57.864-23.038,72.324c-8.167,21.147-9.374,52.191,10.678,67.383
	c10.284,7.797,21.235,11.539,24.567,25.685c3.098,13.068,0.708,23.971,6.502,36.331c9.028,19.28,29.717,25.661,44.45,40.395
	c19.32,19.344,18,44.482,18,71.857c0,28.695,10.879,50.501,14.685,76.75c3.903,27.077,11.861,52.167,17.566,78.375
	c4.289,19.682,21.259,49.471,45.874,45.456c1.706-9.326-7.966-16.649-9.173-25.886c-1.119-8.393,1.255-17.131-0.435-26.12
	c-3.307-17.791-3.122-28.236,8.666-43.726c4.152-5.448,9.906-9.962,14.21-15.442c8.328-10.63,1.939-7.475,1.601-19.111
	c-0.459-14.532,3.967-7.387,12.722-11.933c4.546-2.342,9.584-9.439,13.076-13.068c7.636-7.934,19.409-17.469,25.315-26.892
	c6.663-10.63,5.818-25.411,12.641-36.355c7.821-12.569,18.886-12.593,29.829-20.785c14.17-10.63,8.328-21.807,10.903-36.379
	c4.313-24.358,15.353-51.209,30.706-70.618c19.32-24.43,27.616-45.166,4.104-68.615c-11.611-11.587-17.655-8.505-33.096-12.545
	c-11.748-3.074-22.33-11.652-34.287-13.132c-7.186-0.869-11.402,1.706-17.952,0c-6.108-1.601-5.359-5.319-11.788-5.246
	c-9.6,0.113-23.014,20.093-31.109,7.323c-4.522-7.121,9.165-26.804,8.546-36.363c-0.772-11.7-5.126-30.811-16.6-37.224
	c-4.361-2.414-14.009-2.784-19.32-4.812c-6.252-2.422-12.384-6.293-18.001-9.897c-7.298-4.675-21.436-12.867-24.679-21.235
	c-8.988-0.394-15.072-5.319-24.221-5.206c-8.192,0.113-13.615,3.903-22.491,2.897c-7.757-0.861-16.126-7.001-24.494-5.834
	c-5.592,0.772-13.848,8.006-18.684,10.742c-12.754,7.186-26.345,12.432-40.467,15.055c-21.847,4.08-25.774-4.265-24.47-24.502
	l-3.283-6.518c8.119-22.563-6.502-24.156-22.611-29.636c-2.229-16.077,17.542-27.552,9.262-45.182
	c-16.721-0.869-34.939,46.212-49.109,25.822c-9.326-13.438,4.86-51.048,13.076-62.435c8.28-11.475,38.383-32.203,52.569-33.981
	c11.04-1.368,20.688,3.468,24.937,13.156c4.627,10.541-1.416,20.487-0.072,32.436c14.098-3.259,10.445-21.187,9.833-30.811
	c-1.03-16.061,7.387-14.854,15.578-26.442c7.483-10.533,8.618-22.603,17.928-32.799c7.25-7.942,15.764-16.311,23.722-23.633
	c9.077-8.344,19.296-7.596,28.622-13.752c14.146-9.35-4.579-26.731,16.287-25.436c7.419,0.483,3.742,5.086,13.551,2.857
	c4.176-0.941,11.885-4.796,16.238-6.574c19.892-8.071,5.794-10.235-3.347-20.777c-11.587-13.39,4.836-11.04,16.81-13.052
	c8.803-1.481,6.952-4.353,14.669,0.829c6.792,4.554,2.8,10.622,12.698,10.284c18.845-0.636,5.794-19.521,1.601-25.798
	c-7.186-10.742-9.036-18.202-24.205-18.612c1.44-4.836,1.625-11.201-0.499-15.852c-12.77,1.69-14.983-7.596-24.655-11.249
	c-16.287-6.18-13.688,7.162-20.35,16.262c-6.864,9.374-19.956,7.757-25.001,19.208c-5.239,11.885-0.25,21.01-19.385,17.751
	c2.599-7.17,1.714-16.359,1.207-23.995c-5.56-0.732-10.63-2.124-15.78-3.814c0.024-19.135,21.211-20.736,35.623-22.555
	c16.15-2.052,21.42-18.459,35.84-21.235c13.454-2.583,23.078,19.2,39.687,6.566c9.463-7.21,5.086-11.426,1.617-18.363
	c-0.933-1.843-5.697-6.043-6.952-7.757l-0.322-0.587c12.843-2.486,25.862-4.402,38.954-5.89c2.47,7.162,7.829,15.812,10.75,20.785
	c2.116,3.621,6.156,6.067,7.87,10.058c1.939,4.538-2.623,10.195,3.098,13.269c8.875,4.723,34.714-26.136,40.901-31.157
	c7.87-6.341,12.794-9.825,10.919-15.989c41.513,1.231,82.141,7.483,121.24,18.435c3.098,3.895,6.293,7.91,9.487,12.336
	c6.888,9.56,11.241,18.161,23.625,22.426c7.186,2.438,30.135,2.004,20.6,18.379c-8.803,15.152-18.54-4.699-22.99-9.439
	c-6.164-6.614-24.341-13.937-23.77,1.207c0.845,22.563,51.644,18.934,40.741,43.678c6.091,3.605,18.105,9.56,16.126,18.435
	c-2.438,10.944-16.697,3.943-16.423,17.952c0.41,19.843,22.056,36.154,42.149,29.008c21.42-7.596,5.295-37.337,29.837-40.395
	c9.672-1.231,15.377,1.617,24.044,8.489c7.073,5.584,11.611,18.266,21.348,17.284c1.006-6.043-3.532-10.356-4.337-15.916
	c7.556,1.891,22.7,11.29,27.029,17.856c6.55,9.922,5.842,24.229,21.831,11.426c-2.39-1.979-3.581-6.357-4.876-7.91
	c20.431,0.064,34.714,8.457,43.517,26.232c19.618,39.638-28.558,8.184-30.948,28.831c-11.861-3.766-17.131-13.325-27.447-19.022
	c-4.876-2.72-13.913-1.279-17.655-4.015c-5.15-3.79-3.895-10.654-8.417-14.371c-17.807-14.597-58.459,8.988-74.835,18.427
	c-4.426,2.559-9.173,2.832-12.183,7.62c-5.222,8.256,2.1,10.356,0.459,18.041c-2.301,10.976-16.625,16.013-20.962,24.816
	c-10.404,21.123,10.718,51.346,7.87,74.77c-1.577,13.028-15.603,27.15-10.219,38.029c2.301,4.675,10.404,8.666,13.502,14.21
	c2.808,5.013,4.015,11.587,7.709,16.786c12.022,16.882,29.266,35.647,43.34,51.411c8.007,8.964,18.886,11.451,30.932,8.988
	c9.97-2.052,25.066-5.383,34.303-9.809c12.32-5.906,13.961-14.211,26.916-8.594c10.284,4.466,19.368,17.606,31.406,6.727
	c9.922,9.688-1.094,26.594-3.307,37.385c-2.824,13.865,2.647,25.862,11.153,37.635c10.219,14.122,12.617,16.608,10.517,35.494
	c-1.617,14.685-5.359,28.147-8.53,42.72c-3.01,13.937-11.885,24.518-11.426,39.276c0.459,13.615,6.341,24.567,4.538,39.188
	c-1.577,12.867-2.35,28.22-5.705,40.805c-3.468,12.915-12.569,24.365-16.423,37.57c-3.645,12.569-2.623,28.856,6.188,39.188
	c9.141,10.767,18.242,4.603,28.984-3.541c21.171-16.077,30.819-43.356,44.893-65.05c14.347-22.145,28.831-42.358,38.407-65.307
	c2.036-4.852,4.498-9.648,6.985-14.46C2004.453,1471.483,1960.96,1545.98,1899.555,1607.408z"/>
<path fill-rule="evenodd" clip-rule="evenodd" d="M1538.499,755.147c270.958,0,490.617,219.66,490.617,490.609
	c0,270.958-219.66,490.617-490.617,490.617s-490.609-219.66-490.609-490.617C1047.889,974.806,1267.541,755.147,1538.499,755.147
	L1538.499,755.147z M1344.572,1696.526V794.994c-41.811,18.001-80.612,41.65-115.438,70.007v329.457h-61.38v-270.04
	c-61.083,70.417-102.419,158.392-115.438,255.355v131.974c13.02,96.963,54.356,184.938,115.438,255.355v-270.04h61.38v329.481
	C1263.96,1654.876,1302.761,1678.525,1344.572,1696.526L1344.572,1696.526z M1680.789,1715.387v-96.577v-285.852H1565.35v285.852
	h-57.711V756.153c-39.96,2.462-78.649,9.696-115.438,21.187v841.471v95.37c46.212,14.436,95.346,22.193,146.298,22.193
	C1587.978,1736.373,1635.759,1729.027,1680.789,1715.387L1680.789,1715.387z M1725.674,792.17v907.181
	c177.825-73.443,303.032-248.395,303.418-452.653l-154.079-1.666c0,0,0.201,7.298,5.721,12.11
	c5.496,4.812,23.134,11.676,23.134,11.676s0,6.413-11.909,65.058c-11.933,58.645-50.847,96.183-50.847,96.183v-420.015l68.703,4.064
	l-0.909,113.612c11.539,0,63.481-26.023,93.608-41.65c-29.942-86.993-83.638-162.906-153.347-220.022l-8.055-1.939v-4.514
	C1806.149,832.154,1767.348,809.39,1725.674,792.17z"/>
<path fill-rule="evenodd" clip-rule="evenodd" fill="#FFCB05" stroke="#FFCB05" stroke-width="0.5" stroke-miterlimit="2.6131" d="
	M1939.837,434.629l64.39,36.701c15.788,8.94,28.421,1.505,28.333-16.608l-0.483-74.151l-0.459-74.183
	c-0.089-18.105-10.42-22.241-22.99-9.189l-31.543,32.734c-12.593,13.068-36.999,27.391-54.541,31.978l-43.951,11.491
	c-17.518,4.611-18.958,15.627-3.219,24.567L1939.837,434.629z"/>
<path fill-rule="evenodd" clip-rule="evenodd" fill="#00A651" stroke="#00A651" stroke-width="0.5" stroke-miterlimit="2.6131" d="
	M2082.055,1930.895l-64.623,36.331l-64.688,36.25c-15.804,8.867-15.965,23.537-0.362,32.823l63.73,37.908l63.778,37.836
	c15.579,9.262,24.406,2.511,19.707-14.959l-11.748-43.911c-4.699-17.518-4.337-45.778,0.772-63.183l12.819-43.678
	C2106.55,1928.907,2097.883,1922.044,2082.055,1930.895z"/>
<path fill-rule="evenodd" clip-rule="evenodd" fill="#FFCB05" stroke="#FFCB05" stroke-width="0.5" stroke-miterlimit="2.6131" d="
	M2184.04,1689.155l13.728-61.195c1.553-7.025,2.985-13.824,4.563-21.308c25.476-121.642,38.045-245.57,36.653-369.313
	c-1.939-147.875-21.074-296.57-60.737-439.923l-12.553-42.406c-24.953-80.886-56.311-159.985-95.869-235.785l-1.094-1.98
	c-0.636-1.07-4.539,0.66-8.916,3.581c-2.647,1.706-5.335,3.372-8.143,4.876c-4.128,2.309-8.417,4.313-12.706,6.067
	c-7.186,2.945-12.979,5.367-12.593,6.051l0.644,1.32c25.846,52.328,47.854,106.249,66.579,161.176l13.205,42.511
	c49.021,159.969,70.642,328.049,69.25,494.512c-1.641,155.543-22.217,312.036-66.603,461.15l-19.248,58.596
	c0.064-0.048,0.137-0.097,0.201-0.113c-0.933,2.664-1.867,5.335-2.8,8.023c-9.036,25.87-18.708,51.555-29.378,76.846
	c-7.049,16.745,0.113,23.287,17.767,19.119c6.091-1.44,12.32-2.51,18.66-3.38c17.904-2.374,38.705-15.876,45.544-32.662
	C2160.792,1775.038,2172.879,1735.142,2184.04,1689.155z"/>
<path fill-rule="evenodd" clip-rule="evenodd" fill="#00A651" stroke="#00A651" stroke-width="0.5" stroke-miterlimit="2.6131" d="
	M1551.639,1988.421l42.334,11.29c83.074,20.962,167.766,36.13,253.601,43.637c18.065,1.617,30.859-4.337,29.692-12.963
	c-0.684-5.15-1.07-10.372-1.07-15.643c0-2.599,0.073-5.045,0.25-7.548c0.257-4.176-13.889-8.811-31.929-10.863
	c-51.821-5.882-103.167-14.709-154.039-25.798c-2.776-0.612-5.56-1.231-8.32-1.843c0.064-0.048,0.161-0.073,0.249-0.113l-44-10.614
	c-158.706-40.073-311.417-103.207-452.814-182.677c-147.859-83.348-285.876-184.986-402.892-304.102l-43.589-45.979
	c-14.709-16.359-29.266-32.823-43.155-49.817c-11.515-13.985-25.387-11.523-35.945,3.211l-3.653,4.909
	c-11.378,14.162-16.311,31.841-4.699,45.778c33.12,39.759,66.402,74.424,102.008,108.277l49.109,44.78
	c11.338,9.962,22.579,19.883,34.689,30.151c97.647,81.819,203.759,154.191,316.711,214.864
	C1279.683,1894.58,1413.211,1949.684,1551.639,1988.421z"/>
<path fill-rule="evenodd" clip-rule="evenodd" fill="#00A651" stroke="#00A651" stroke-width="0.5" stroke-miterlimit="2.6131" d="
	M532.866,645.566c57.623-99.329,161.224-169.947,276.55-207.654c51.338-17.019,104.784-28.26,159.188-35.309l30.224-3.541
	c58.62-5.745,118.174-6.655,177.366-3.46c118.561,6.767,235.85,28.711,350.057,62.016l107.432,35.084
	c0.249-0.048,0.483-0.121,0.708-0.161c3.516,1.255,7.025,2.551,10.541,3.83c84.917,31.294,167.557,68.792,246.938,111.174
	c74.424,40.419,146.386,85.746,214.928,135.282l71.447,54.589c104.6,84.233,198.779,179.853,275.488,288.379
	c28.968,41.103,55.112,84.193,77.74,128.74l27.898,60.286c18.926,45.319,33.981,91.942,43.766,139.731
	c11.724,58.669,15.401,118.818,7.572,177.551c-7.636,58.548-27.576,115.897-58.459,166.077
	c-31.543,51.113-73.74,94.702-123.509,129.673c-49.753,34.714-106.273,60.536-165.167,78.922
	c-25.178,7.709-50.775,14.001-76.661,19.159c-17.751,3.532-31.278,10.855-30.594,17.196c0.435,3.854,0.708,7.685,0.708,11.611
	c0,2.873-0.113,5.745-0.41,8.618c-0.362,4.724,13.575,6.14,31.294,2.334c29.749-6.349,59.192-14.074,88.208-23.657
	c61.726-20.575,121.095-49.318,173.463-87.564c52.561-37.82,97.695-86.221,129.995-140.488
	c32.959-55.426,52.714-116.235,59.964-178.646c7.306-62.225,2.422-125.111-10.807-185.694
	c-12.247-55.426-31.366-108.888-54.975-160.347l-30.038-60.222c-21.646-39.614-45.778-78.078-71.737-115.028
	c-85.537-119.888-189.935-226.153-306.291-319.037l-72.099-54.694c-59.602-42.929-121.433-82.986-185.533-119.228
	c-67.882-38.182-138.428-72.396-210.824-102.805l-105.613-40.716c-132.272-46.389-270.29-78.351-411.985-89.729
	c-45.899-3.492-92.312-4.587-138.734-3.058l-31.02,1.553c-73.966,4.466-147.665,16.166-219.338,38.246
	c-62.998,19.666-124.153,47.588-178.758,85.883c-54.629,38.045-102.025,86.816-136.859,143.176
	c-35.035,56.247-56.134,120.001-64.318,184.367c-8.328,64.535-3.903,129.52,9.004,192.084
	c8.578,40.757,20.672,80.451,35.446,119.068c6.502,16.898,24.092,21.396,40.652,14.026l5.013-2.124
	c16.794-6.727,25.621-22.483,19.095-39.413c-13.181-34.239-23.971-69.138-31.64-104.672c-12.062-56.681-16.262-114.69-9.326-171.138
	C485.519,749.265,504.172,694.812,532.866,645.566z"/>
<path fill-rule="evenodd" clip-rule="evenodd" fill="#FFCB05" stroke="#FFCB05" stroke-width="0.5" stroke-miterlimit="2.6131" d="
	M763.494,1237.436c-0.563-89.464,5.11-179.402,18.073-268.359l15.691-89.504c24.47-119.502,63.183-236.123,119.204-345.768
	c23.923-46.743,51.411-91.926,82.366-134.743l42.076-54.283c30.087-35.671,63.046-68.888,99.088-98.854
	c47.331-39.051,100.045-72.195,157.297-95.072c56.931-22.949,118.955-35.132,179.877-34.738
	c62.225,0.547,122.874,13.639,179.418,37.337c56.456,23.746,108.076,57.526,154.103,97.052
	c16.061,13.873,31.366,28.421,46.027,43.476c12.682,12.979,28.695,17.341,37.594,10.581c8.892-6.703,7.073-21.799-5.745-34.617
	c-16.52-16.496-33.877-32.348-52.078-47.379c-49.608-40.741-105.292-75.543-166.213-99.699
	c-60.584-24.502-127.05-37.635-192.47-37.224c-66.667,0.499-131.838,14.548-191.915,39.751
	c-60.198,25.074-114.714,60.56-163.139,101.783c-42.084,36.057-79.333,76.291-112.864,119.156c0,0-31.608,36.307-41.4,56.271
	c0.048,0,0.072,0,0.121,0c-0.137,0.201-0.274,0.41-0.41,0.612c-26.466,39.099-50.115,79.856-71.535,121.369
	C834.707,647.192,792.148,777.573,765.53,911.028l-16.359,96.255c-10.718,76.275-16.85,153.218-17.743,229.992
	c-0.523,54.444,1.32,109.073,5.609,163.614c0.298,3.806,0.62,7.644,0.941,11.451c0.177,2.14,0.362,4.289,0.563,6.429l0.845,6.711
	l14.283,112.083c0.772,4.836,1.569,9.648,2.39,14.46c23.496,139.007,64.575,275.448,128.031,404.099
	c15.538,31.205,32.646,61.839,51.097,91.781l16.423,26.031c44.434,67.745,97.076,130.928,160.259,185.373
	c49.383,42.285,105.356,78.922,167.259,104.945c61.863,26.184,129.81,40.942,198.36,41.586
	c68.566,0.821,136.947-13.663,199.446-39.027c62.7-25.387,119.454-61.517,169.818-103.465c32.823-27.648,62.813-57.574,90.526-89.23
	c11.933-13.647,7.21-30.183-7.846-40.306l-3.967-2.72c-14.758-10.581-33.595-10.356-45.504,3.307
	c-24.639,28.059-50.96,54.517-79.405,78.745c-45.52,38.367-96.005,70.779-150.651,93.334
	c-54.629,22.764-113.346,34.537-172.417,35.397c-118.906,2.1-234.715-48.304-326.641-124.789
	c-48.425-40.009-91.346-86.269-129.399-136.4l-17.196-23.36c-27.801-39.027-52.851-79.968-75.181-122.262
	c-58.347-111.262-99.449-230.281-126.293-352.72l-20.077-111.158C771.251,1393.679,764.612,1315.489,763.494,1237.436z"/>
<path fill-rule="evenodd" clip-rule="evenodd" fill="#ED1C24" stroke="#ED1C24" stroke-width="0.5" stroke-miterlimit="2.6131" d="
	M1188.007,2059.651c-61.131,4.039-122.825,3.565-183.755-2.326l-69.065-9.423c-0.072,0-0.137-0.016-0.209-0.016
	c-40.692-6.936-80.853-16.311-119.864-29.129c-59.071-19.594-115.503-46.623-164.87-82.503
	c-49.31-35.583-91.395-80.749-121.457-131.315c-30.682-51.757-49.109-108.349-55.933-166.994
	c-6.631-58.548-1.682-118.174,11.113-175.95c3.903-17.453,8.53-34.698,13.776-51.708c5.359-17.292,6.156-32.686,1.167-34.995
	c-2.993-1.295-5.979-2.776-8.9-4.418c-3.235-1.786-6.365-3.629-9.326-5.681c-5.045-3.38-13.712,7.524-18.886,24.856
	c-6.341,21.243-11.772,42.792-16.174,64.575c-12.134,61.38-15.9,124.773-7.274,187.296c8.071,62.266,29.379,123.855,62.451,177.704
	c33.804,54.903,79.124,101.687,132.047,138.871c52.827,37.111,112.268,64.503,173.874,83.871
	c47.403,14.822,95.82,24.993,144.777,31.543c0.016,0,0.064,0.024,0.113,0.024l69.838,6.751c0.048,0,0.072,0,0.121,0
	c55.997,3.718,112.268,3.42,167.992-0.137c138.09-9.785,273.669-38.318,404.413-80.837c33.12-10.791,58.669-18.862,88.434-31.133
	c81.2-30.932,160.307-66.901,236.333-107.754c101.341-54.629,176.545-104.583,265.301-171.669
	c117.466-90.397,223.554-194.522,310.548-313.927c23.199-32.275,44.868-65.806,64.784-100.407l14.347-25.613l2.003-3.605
	c35.398-66.265,63.433-136.424,80.017-210.334c13.663-61.952,18.91-126.503,11.499-190.756
	c-7.234-64.165-27.713-127.774-61.477-184.713c-33.458-57.092-80.837-106.426-135.073-145.412
	c-54.404-39.091-115.583-67.971-178.766-88.586c-41.739-13.414-84.233-23.336-127.114-30.409
	c-17.84-2.945-30.014,9.897-31.817,27.938l-0.322,2.744c-2.165,17.992,6.912,33.668,24.792,36.605
	c38.069,6.276,75.567,14.854,112.019,26.369c57.526,18.411,112.179,43.975,159.985,77.941
	c47.991,33.716,88.047,76.323,118.359,124.773c61.316,97.237,73.515,218.171,50.139,332.451
	c-11.386,56.408-30.087,111.536-54.243,164.861l-12.247,25.46c-22.676,46.261-49.085,91.097-78.536,133.986
	c-70.232,101.59-155.334,193.307-250.447,275.351c-1.577,1.368-3.146,2.744-4.723,4.088c0.024-0.113,0.048-0.233,0.072-0.346
	l-0.418,0.346l-87.975,70.53c-65.758,49.383-134.799,94.952-206.608,135.853c-84.531,47.21-173.053,88.957-264.432,123.622
	c-31.044,9.946-66.08,23.907-92.376,32.235C1430.061,2026.901,1310.172,2051.419,1188.007,2059.651z"/>
<path fill-rule="evenodd" clip-rule="evenodd" fill="#ED1C24" stroke="#ED1C24" stroke-width="0.5" stroke-miterlimit="2.6131" d="
	M1196.536,666.488c138.476-74.569,284.943-135.282,437.147-173.785c0.249-0.048,0.483-0.121,0.732-0.161l62.821-14.259
	c34.44-7.226,69.041-13.639,103.964-18.403c18.017-2.374,18.54-9.922,6.429-23.432c-2.486-2.8-4.74-5.745-6.655-8.731
	c-9.769-15.281-22.563-29.451-40.539-26.916c-62.748,8.876-112.839,20.527-168.812,36.766l-65.372,20.052
	c-124.95,39.574-247.051,92.352-361.169,156.839c-135.901,77.047-259.226,162.681-367.51,264.818
	c-0.113,0.097-0.225,0.209-0.314,0.298l-31.752,31.567l-6.84,6.824c-53.656,54.444-103.602,113.177-148.655,178.139l-3.557,5.367
	c-1.915,2.913,4.788,9.165,14.186,15.345c6.043,4.015,11.772,8.143,16.906,11.338l2.527,1.577h3.629l1.046-1.577
	c32.621-44.82,67.955-86.679,105.227-126.615l0.612-0.62l30.98-31.841c0.089-0.089,0.177-0.177,0.274-0.274
	C901.72,848.666,1042.096,750.085,1196.536,666.488z"/>
<path fill-rule="evenodd" clip-rule="evenodd" fill="#ED1C24" stroke="#ED1C24" stroke-width="0.5" stroke-miterlimit="2.6131" d="
	M586.723,1344.16l3.444-74.11l3.492-74.014c0.861-18.137-11.523-26.047-27.649-17.743l-65.871,34.005l-65.879,34.054
	c-16.102,8.28-15.12,19.296,2.237,24.639l43.452,13.293c17.333,5.271,41.151,20.551,53.173,34.126l30.264,34.005
	C575.409,1365.966,585.854,1362.297,586.723,1344.16z"/>
<path fill-rule="evenodd" clip-rule="evenodd" fill="#939598" d="M1552.234,2990.948l51.25,0.273c0,0-32.364,44.981-30.401,44.981
	c1.979,0,34.464,0.137,34.464,0.137l-75.824,63.207l30.385-47.492l-21.783-0.064L1552.234,2990.948z"/>
<polygon fill-rule="evenodd" clip-rule="evenodd" fill="#939598" points="474.544,2865.265 474.544,2981.983 451.506,2981.983 
	451.506,2820.743 483.645,2820.743 509.853,2917.32 509.853,2820.743 532.665,2820.743 532.665,2981.983 506.368,2981.983 "/>
<path fill-rule="evenodd" clip-rule="evenodd" fill="#939598" d="M577.646,2944.872c0,10.678,4.426,15.965,13.293,15.965
	c8.827,0,13.253-5.287,13.253-15.965v-87.017c0-10.582-4.426-15.852-13.253-15.852c-8.867,0-13.293,5.271-13.293,15.852V2944.872
	L577.646,2944.872z M552.122,2859.424c0-27.005,12.931-40.483,38.817-40.483c25.87,0,38.826,13.478,38.826,40.483v83.871
	c0,26.989-12.955,40.491-38.826,40.491c-25.886,0-38.817-13.502-38.817-40.491V2859.424z"/>
<path fill-rule="evenodd" clip-rule="evenodd" fill="#939598" d="M723.059,2820.743c25.428,0,38.133,13.277,38.133,39.92v20.913
	c0,26.53-12.706,39.799-38.133,39.799h-12.134v60.608h-25.548v-161.24H723.059L723.059,2820.743z M710.924,2843.781v54.653h12.134
	c8.344,0,12.472-5.11,12.472-15.281v-24.18c0-10.131-4.128-15.192-12.472-15.192H710.924z"/>
<path fill-rule="evenodd" clip-rule="evenodd" fill="#939598" d="M829.646,2981.983c-0.797-2.535-1.392-4.723-1.69-6.526
	c-0.41-2.921-0.571-7.323-0.571-13.269v-25.299c0-13.712-5.609-20.575-16.81-20.575h-8.827v65.669h-25.565v-161.24h38.592
	c25.315,0,37.932,12.36,37.932,37.112v12.706c0,16.536-5.633,27.439-16.81,32.71c11.354,4.627,17.035,16.077,17.035,34.303v24.84
	c0,8.715,0.893,15.233,2.712,19.57H829.646L829.646,2981.983z M801.748,2843.781v49.584h9.97c10.284,0,15.442-5.673,15.442-17.083
	v-15.852c0-11.08-4.377-16.649-13.044-16.649H801.748z"/>
<polygon fill-rule="evenodd" clip-rule="evenodd" fill="#939598" points="898.349,2888.762 933.521,2888.762 933.521,2911.703 
	898.349,2911.703 898.349,2958.921 942.485,2958.921 942.485,2981.983 872.776,2981.983 872.776,2820.743 942.485,2820.743 
	942.485,2843.781 898.349,2843.781 "/>
<path fill-rule="evenodd" clip-rule="evenodd" fill="#939598" d="M958.249,2859.424c0-27.005,12.569-40.483,37.699-40.483
	c25.09,0,37.707,13.478,37.707,40.483v8.538h-24.18v-10.107c0-10.582-4.289-15.852-12.843-15.852
	c-8.554,0-12.818,5.271-12.818,15.852c0,7.25,2.599,14.259,7.829,20.889c2.028,2.559,4.74,5.407,8.071,8.554l6.775,6.301
	c0.933,0.845,1.714,1.529,2.398,2.14c3.806,3.444,6.816,6.453,9.077,8.988c3.235,3.533,5.971,7.025,8.047,10.469
	c5.246,8.376,7.854,17.767,7.854,28.099c0,26.989-12.73,40.491-38.141,40.491c-25.436,0-38.142-13.502-38.142-40.491v-15.619h24.18
	v17.196c0,10.517,4.426,15.74,13.277,15.74c8.779,0,13.164-5.222,13.164-15.74c0-7.25-2.559-14.21-7.717-20.801
	c-2.052-2.535-4.715-5.407-8.047-8.642l-9.197-8.441c-3.806-3.444-6.864-6.453-9.189-9.012c-3.17-3.492-5.842-6.96-7.958-10.332
	C960.896,2879.154,958.249,2869.764,958.249,2859.424z"/>
<path fill-rule="evenodd" clip-rule="evenodd" fill="#939598" d="M1048.276,2859.424c0-27.005,12.545-40.483,37.683-40.483
	c25.114,0,37.707,13.478,37.707,40.483v8.538h-24.18v-10.107c0-10.582-4.289-15.852-12.818-15.852
	c-8.578,0-12.843,5.271-12.843,15.852c0,7.25,2.599,14.259,7.821,20.889c2.028,2.559,4.748,5.407,8.079,8.554l6.791,6.301
	c0.917,0.845,1.69,1.529,2.398,2.14c3.79,3.444,6.799,6.453,9.053,8.988c3.267,3.533,5.979,7.025,8.079,10.469
	c5.222,8.376,7.821,17.767,7.821,28.099c0,26.989-12.706,40.491-38.133,40.491c-25.412,0-38.141-13.502-38.141-40.491v-15.619h24.18
	v17.196c0,10.517,4.426,15.74,13.269,15.74c8.811,0,13.164-5.222,13.164-15.74c0-7.25-2.551-14.21-7.709-20.801
	c-2.052-2.535-4.723-5.407-8.055-8.642l-9.189-8.441c-3.806-3.444-6.864-6.453-9.189-9.012c-3.17-3.492-5.842-6.96-7.966-10.332
	C1050.899,2879.154,1048.276,2869.764,1048.276,2859.424z"/>
<path fill-rule="evenodd" clip-rule="evenodd" fill="#939598" d="M1165.862,2820.743v124.354c0,10.477,4.426,15.739,13.293,15.739
	c8.851,0,13.277-5.262,13.277-15.739v-124.354h24.18v122.785c0,26.981-12.706,40.483-38.142,40.483
	c-25.428,0-38.133-13.502-38.133-40.483v-122.785H1165.862z"/>
<path fill-rule="evenodd" clip-rule="evenodd" fill="#939598" d="M1290.627,2981.983c-0.797-2.535-1.416-4.723-1.706-6.526
	c-0.394-2.921-0.547-7.323-0.547-13.269v-25.299c0-13.712-5.617-20.575-16.818-20.575h-8.843v65.669h-25.548v-161.24h38.592
	c25.299,0,37.908,12.36,37.908,37.112v12.706c0,16.536-5.609,27.439-16.81,32.71c11.362,4.627,17.059,16.077,17.059,34.303v24.84
	c0,8.715,0.893,15.233,2.72,19.57H1290.627L1290.627,2981.983z M1262.713,2843.781v49.584h9.962
	c10.316,0,15.466-5.673,15.466-17.083v-15.852c0-11.08-4.377-16.649-13.068-16.649H1262.713z"/>
<polygon fill-rule="evenodd" clip-rule="evenodd" fill="#939598" points="1359.306,2888.762 1394.502,2888.762 1394.502,2911.703 
	1359.306,2911.703 1359.306,2958.921 1403.466,2958.921 1403.466,2981.983 1333.757,2981.983 1333.757,2820.743 1403.466,2820.743 
	1403.466,2843.781 1359.306,2843.781 "/>
<path fill-rule="evenodd" clip-rule="evenodd" fill="#939598" d="M1419.23,2859.424c0-27.005,12.545-40.483,37.707-40.483
	c25.09,0,37.675,13.478,37.675,40.483v8.538h-24.172v-10.107c0-10.582-4.289-15.852-12.818-15.852
	c-8.578,0-12.818,5.271-12.818,15.852c0,7.25,2.599,14.259,7.821,20.889c2.028,2.559,4.74,5.407,8.047,8.554l6.799,6.301
	c0.917,0.845,1.714,1.529,2.398,2.14c3.806,3.444,6.816,6.453,9.077,8.988c3.243,3.533,5.955,7.025,8.055,10.469
	c5.222,8.376,7.821,17.767,7.821,28.099c0,26.989-12.706,40.491-38.117,40.491c-25.428,0-38.133-13.502-38.133-40.491v-15.619
	h24.172v17.196c0,10.517,4.426,15.74,13.253,15.74c8.811,0,13.189-5.222,13.189-15.74c0-7.25-2.559-14.21-7.709-20.801
	c-2.052-2.535-4.724-5.407-8.079-8.642l-9.189-8.441c-3.79-3.444-6.848-6.453-9.173-9.012c-3.194-3.492-5.858-6.96-7.982-10.332
	C1421.853,2879.154,1419.23,2869.764,1419.23,2859.424z"/>
<rect x="1547.286" y="2889.905" fill-rule="evenodd" clip-rule="evenodd" fill="#939598" width="46.526" height="23.038"/>
<polygon fill-rule="evenodd" clip-rule="evenodd" fill="#939598" points="1673.056,2865.265 1673.056,2981.983 1649.994,2981.983 
	1649.994,2820.743 1682.157,2820.743 1708.365,2917.32 1708.365,2820.743 1731.169,2820.743 1731.169,2981.983 1704.849,2981.983 
	"/>
<path fill-rule="evenodd" clip-rule="evenodd" fill="#939598" d="M1776.151,2944.872c0,10.678,4.41,15.965,13.277,15.965
	c8.851,0,13.277-5.287,13.277-15.965v-87.017c0-10.582-4.426-15.852-13.277-15.852c-8.868,0-13.277,5.271-13.277,15.852V2944.872
	L1776.151,2944.872z M1750.61,2859.424c0-27.005,12.931-40.483,38.818-40.483c25.894,0,38.825,13.478,38.825,40.483v83.871
	c0,26.989-12.931,40.491-38.825,40.491c-25.886,0-38.818-13.502-38.818-40.491V2859.424z"/>
<path fill-rule="evenodd" clip-rule="evenodd" fill="#939598" d="M1883.864,2820.743h40.419c25.428,0,38.158,13.277,38.158,39.92
	v81.521c0,26.522-12.73,39.799-38.158,39.799h-40.419V2820.743L1883.864,2820.743z M1909.429,2843.781v115.141h14.42
	c8.666,0,13.02-5.174,13.02-15.627v-83.871c0-10.421-4.353-15.643-13.02-15.643H1909.429z"/>
<rect x="1981.825" y="2820.743" fill-rule="evenodd" clip-rule="evenodd" fill="#939598" width="25.548" height="161.24"/>
<path fill-rule="evenodd" clip-rule="evenodd" fill="#939598" d="M2111.909,2981.983h-25.75l-4.426-29.242h-31.342l-4.426,29.242
	h-23.488l25.975-161.24h37.482L2111.909,2981.983L2111.909,2981.983z M2053.562,2930.822h24.776l-12.384-81.521L2053.562,2930.822z"
	/>
<polygon fill-rule="evenodd" clip-rule="evenodd" fill="#939598" points="2181.046,2935.2 2198.524,2820.743 2234.058,2820.743 
	2234.058,2981.983 2209.878,2981.983 2209.878,2866.384 2192.295,2981.983 2168.115,2981.983 2149.044,2867.961 2149.044,2981.983 
	2126.666,2981.983 2126.666,2820.743 2162.185,2820.743 "/>
<path fill-rule="evenodd" clip-rule="evenodd" fill="#939598" d="M2279.24,2944.872c0,10.678,4.402,15.965,13.277,15.965
	c8.851,0,13.277-5.287,13.277-15.965v-87.017c0-10.582-4.426-15.852-13.277-15.852c-8.875,0-13.277,5.271-13.277,15.852V2944.872
	L2279.24,2944.872z M2253.7,2859.424c0-27.005,12.931-40.483,38.817-40.483c25.886,0,38.825,13.478,38.825,40.483v83.871
	c0,26.989-12.939,40.491-38.825,40.491c-25.886,0-38.817-13.502-38.817-40.491V2859.424z"/>
<polygon fill-rule="evenodd" clip-rule="evenodd" fill="#939598" points="2373.79,2865.265 2373.79,2981.983 2350.728,2981.983 
	2350.728,2820.743 2382.866,2820.743 2409.074,2917.32 2409.074,2820.743 2431.911,2820.743 2431.911,2981.983 2405.582,2981.983 
	"/>
<path fill-rule="evenodd" clip-rule="evenodd" fill="#939598" d="M2453.372,2820.743h40.395c25.46,0,38.166,13.277,38.166,39.92
	v81.521c0,26.522-12.706,39.799-38.166,39.799h-40.395V2820.743L2453.372,2820.743z M2478.92,2843.781v115.141h14.412
	c8.69,0,13.052-5.174,13.052-15.627v-83.871c0-10.421-4.361-15.643-13.052-15.643H2478.92z"/>
<path fill-rule="evenodd" clip-rule="evenodd" fill="#939598" d="M2548.146,2859.424c0-27.005,12.545-40.483,37.683-40.483
	c25.114,0,37.707,13.478,37.707,40.483v8.538h-24.18v-10.107c0-10.582-4.289-15.852-12.818-15.852
	c-8.578,0-12.843,5.271-12.843,15.852c0,7.25,2.599,14.259,7.845,20.889c2.004,2.559,4.748,5.407,8.055,8.554l6.792,6.301
	c0.917,0.845,1.69,1.529,2.398,2.14c3.782,3.444,6.816,6.453,9.077,8.988c3.243,3.533,5.955,7.025,8.055,10.469
	c5.222,8.376,7.821,17.767,7.821,28.099c0,26.989-12.706,40.491-38.141,40.491c-25.404,0-38.109-13.502-38.109-40.491v-15.619h24.18
	v17.196c0,10.517,4.402,15.74,13.245,15.74c8.811,0,13.165-5.222,13.165-15.74c0-7.25-2.551-14.21-7.709-20.801
	c-2.052-2.535-4.724-5.407-8.055-8.642l-9.189-8.441c-3.79-3.444-6.864-6.453-9.189-9.012c-3.17-3.492-5.842-6.96-7.966-10.332
	C2550.769,2879.154,2548.146,2869.764,2548.146,2859.424z"/>
<rect x="455.36" y="3029.403" fill-rule="evenodd" clip-rule="evenodd" fill="#939598" width="1022.305" height="15.578"/>
<rect x="1677.892" y="3029.403" fill-rule="evenodd" clip-rule="evenodd" fill="#939598" width="927.161" height="15.578"/>
<path fill-rule="evenodd" clip-rule="evenodd" d="M201.22,2734.273c0-56.931,0.137-113.958-1.352-170.913
	c-1.481-56.955-2.937-113.982-3.758-170.961c20.415,3.581,41.079,7.121,61.767,10.654c0,21.895,0.66,43.75,1.07,65.597
	c0.386,21.831,1.07,43.686,1.875,65.532c18.789,2.1,37.86,4.112,56.906,6.115c-0.797-21.372-1.456-42.792-1.867-64.165
	c-0.41-21.396-0.805-42.881-0.805-64.277c20.398,3.259,41.063,6.566,62.024,9.672c0,0.185,0,0.338,0,0.523c0,0,0,0,0.249,0.024
	c-0.249,0.458-0.249,0.982-0.249,1.456c0.249,28.791,1.07,57.599,1.867,86.382c0.797,28.767,1.344,57.55,2.148,86.293
	c-0.274-0.024-0.274-0.024-0.274-0.024c0.547,23.36,0.821,46.735,0.821,70.071c0,0,0.249,0.024,0.523,0.024
	c-0.274,0.998-0.523,2.004-0.523,2.961c0,21.718,0,43.412,0,65.098c-20.688,0-41.087,0-61.775-0.024c0-21.115,0-42.31,0-63.432
	c0-21.139,0-42.334-0.523-63.481c-19.063-1.207-38.109-2.414-56.906-3.693c0.523,21.782,0.523,43.589,0.523,65.331
	c0,21.71,0,43.541,0,65.275C242.299,2734.313,221.635,2734.313,201.22,2734.273z"/>
<path fill-rule="evenodd" clip-rule="evenodd" d="M436.933,2734.796c-17.976,0-30.908-10.219-32.758-31.133
	c-1.915-21.605,0.41-42.792,0.274-63.553c-0.137-20.704-0.66-40.966-1.07-60.785c-0.41-19.731-1.344-39.526-1.867-59.256
	c-0.547-19.714-2.285-39.437-1.625-59.079c0.41-12.657,5.094-21.348,10.477-26.16c5.335-4.796,12.883-6.461,22.008-5.182
	c38.914,5.407,78.126,10.815,117.329,15.739c9.101,1.143,16.448,4.538,21.742,10.445c5.174,5.77,10.083,14.645,11.29,26.828
	c1.754,18.065,0.66,36.194,1.07,54.356c0.386,18.153,1.07,36.379,1.601,54.605c0.547,18.226,1.07,36.902,1.07,55.997
	c0,19.071,2.052,38.616,0.274,58.508c-1.714,19.248-14.508,28.67-32.485,28.67C515.059,2734.796,476.145,2734.796,436.933,2734.796
	L436.933,2734.796z M469.957,2669.038c16.93,0.523,34.102,1.046,51.282,1.529c0-27.648-0.274-55.337-1.078-82.986
	c-0.797-27.665-1.617-55.362-2.14-83.05c-17.172-1.827-34.625-3.645-51.547-5.472c0.797,28.333,1.617,56.681,2.414,85.014
	C469.683,2612.373,469.957,2640.754,469.957,2669.038z"/>
<path fill-rule="evenodd" clip-rule="evenodd" d="M669.975,2679.732c0,18.363,0,36.75,0,55.064c-20.938,0-41.875,0-62.29,0
	c-0.274-47.033,0.137-94.09-1.07-141.172c-1.207-47.057-2.696-94.131-3.492-141.236c49.93,5.407,99.884,10.654,149.814,15.49
	c9.125,0.893,16.375,4.039,21.734,9.286c5.383,5.246,10.243,13.342,11.298,24.542c1.642,17.952,0.797,32.275,1.07,42.809
	c0.249,10.517,0.66,18.733,1.07,24.639c0.386,5.93,0.274,10.171,0.274,12.867c0,2.664,0.459,4.965,0.249,6.952
	c-0.885,9.238-4.015,16.126-8.047,20.736c-4.015,4.603-9.399,7.484-15.836,8.618c0,0.435,0,0.869,0,1.279
	c-31.954-1.368-63.907-2.76-95.845-4.24c0.523,21.485,0.797,42.905,0.523,64.342
	C669.427,2679.708,669.701,2679.708,669.975,2679.732L669.975,2679.732z M722.6,2572.501c-0.547-16.536-1.344-33.072-1.344-49.632
	c-18.25-1.456-36.798-2.897-55.04-4.49c0.274,16.922,1.07,33.804,1.617,50.702C686.084,2570.296,704.326,2571.391,722.6,2572.501z"
	/>
<path fill-rule="evenodd" clip-rule="evenodd" d="M980.329,2681.076c33.547,0.507,67.126,0.869,100.954,1.255
	c5.633,17.429,11.539,34.786,17.719,52.119c-60.423,0-121.095,0-181.494-0.04c0-42.06,0.523-84.193-0.547-126.253
	c-1.07-42.084-2.414-84.209-3.492-126.293c20.962,1.529,41.634,2.873,62.298,4.168c0.547,32.533,1.344,65.034,2.414,97.559
	C979.251,2616.09,980.055,2648.599,980.329,2681.076z"/>
<path fill-rule="evenodd" clip-rule="evenodd" d="M1299.543,2734.45c-60.672,0-121.071,0-181.494,0
	c0-40.097,0.41-80.282-0.797-120.427c-1.207-40.105-2.414-80.274-2.945-120.419c20.672,0.845,41.063,1.65,62,2.51
	c0.821,31.415,1.754,62.797,2.688,94.163c0.942,31.382,2.149,62.749,2.149,94.131c17.992,0.137,36.516,0.233,55.04,0.37
	c0-30.956-0.386-61.928-1.344-92.884c-0.942-30.956-1.875-61.904-2.672-92.907c0.249,0,0.797,0,1.344,0.024c0-0.362,0-0.749,0-1.135
	c20.664,0.587,41.336,1.135,62,1.481c0.821,39.188,2.028,78.391,3.235,117.563C1299.961,2656.059,1299.269,2695.27,1299.543,2734.45
	z"/>
<path fill-rule="evenodd" clip-rule="evenodd" d="M1498.764,2500.539c-6.18,16.769-11.29,33.555-16.922,50.316
	c-33.555,0.185-67.383,0.048-101.204-0.064c0.797,22.193,1.456,44.362,2.141,66.554c0.66,22.153,0.797,44.345,0.797,66.514
	c39.735-0.064,79.469-0.177,119.204-0.386c-6.18,17.019-12.086,33.99-17.992,50.976c-48.586,0-97.446,0-146.306,0
	c-3.235-3.484-6.751-6.655-9.672-9.39c-2.961-2.784-5.633-6.888-7.524-12.408c0.274-32.412,0.41-64.833-0.523-97.245
	c-0.941-32.388-2.148-64.824-3.219-97.237c1.867-5.496,4.353-9.35,7.508-11.724c3.034-2.301,6.453-4.466,9.672-6.429
	C1389.489,2500.539,1444.247,2500.837,1498.764,2500.539z"/>
<path fill-rule="evenodd" clip-rule="evenodd" d="M1695.547,2651.818c0,10.485,0,20.978,0,31.471
	c18.797-0.088,37.586-0.153,56.383-0.273c0-13.937,0.274-27.914-0.274-41.899c-11.539,0.113-23.086,0.209-34.625,0.322
	c-0.547-16.584-0.821-33.145-1.344-49.753c32.203-0.427,64.438-0.885,96.915-1.408c0.274,15.329,0.797,30.674,1.344,46.003
	c0.531,15.329,0,30.706,0,46.011c0,0,0.274,0,0.531,0c-0.258,0.797-0.531,1.569-0.531,2.326c-0.274,16.6-0.274,33.233-0.274,49.833
	c-60.399,0-120.548,0-180.947,0c0-39.204,0.523-78.488-0.547-117.691c-1.07-39.26-2.414-78.488-3.219-117.748
	c60.407-0.998,120.83-2.302,181.229-3.83c-5.906,17.292-11.273,34.561-16.657,51.821c-33.82,0.619-67.375,1.215-100.93,1.762
	c0.25,10.493,0.523,20.938,0.797,31.43c-0.274,0-0.274,0-0.274,0c0.547,11.949,1.078,23.899,1.352,35.832
	c0.274,11.909,0.547,23.859,0.797,35.792C1695.273,2651.818,1695.273,2651.818,1695.547,2651.818z"/>
<path fill-rule="evenodd" clip-rule="evenodd" d="M1898.775,2682.516c33.555-0.25,67.383-0.523,101.212-0.869
	c5.657,17.566,11.563,35.172,17.719,52.802c-60.672,0-121.345,0-181.47,0c-0.274-39.96,0.523-79.968-0.547-119.904
	c-1.07-39.968-2.422-79.977-3.492-119.961c20.664-0.571,41.352-1.231,62.024-1.979c0.547,31.68,1.73,63.32,2.688,94.976
	C1897.841,2619.22,1898.501,2650.852,1898.775,2682.516z"/>
<path fill-rule="evenodd" clip-rule="evenodd" d="M2070.082,2734.796c-18.274,0-30.908-8.143-32.782-24.953
	c-1.891-17.22,0.41-34.287,0.274-50.847c-0.137-16.601,0.137-32.863-0.523-48.699c-0.684-15.852-1.207-31.68-1.891-47.459
	c-0.66-15.812-1.827-31.551-1.328-47.291c0.322-10.469,5.206-17.944,10.726-22.78c5.472-4.772,12.633-7.459,21.758-7.942
	c38.665-2.028,77.852-4.45,116.782-6.888c9.125-0.595,16.383,1.303,21.742,5.593c5.383,4.281,10.332,11.652,11.265,22.394
	c1.481,16.423,0.547,32.919,1.344,49.383c0.821,16.512,0.958,33.032,1.625,49.568c0.66,16.536,0.66,33.482,0.797,50.815
	c0.137,17.292,1.642,35.036,0,53.084c-1.601,17.534-14.484,26.023-32.758,26.023
	C2148.199,2734.796,2108.996,2734.796,2070.082,2734.796L2070.082,2734.796z M2103.355,2679.732
	c16.906-0.201,34.102-0.435,51.282-0.684c0-23.995-0.41-48.015-1.078-71.986c-0.66-24.044-1.344-48.063-1.867-72.083
	c-17.196,0.869-34.376,1.69-51.274,2.374c0.523,23.746,1.456,47.516,2.14,71.214
	C2103.218,2632.288,2103.355,2656.034,2103.355,2679.732z"/>
<path fill-rule="evenodd" clip-rule="evenodd" d="M2242.7,2734.796c-0.274-43.388,0.386-86.768-0.547-130.156
	c-0.933-43.38-2.664-86.808-3.758-130.236c49.946-3.903,99.876-8.304,149.532-13.076c8.626-0.821,15.788,0.869,21.219,5.271
	c5.584,4.538,10.171,12.344,11.539,23.722c1.577,13.004,1.07,26.096,1.344,39.147c0.273,12.996,0.547,26.047,1.344,39.091
	c-1.867,6.912-4.281,11.998-7.5,15.257c-3.219,3.267-6.454,6.164-10.219,8.715c0,3.243,0,6.461,0,9.648
	c3.766-0.153,6.703,0.805,9.125,2.881c2.414,2.068,5.906,5.375,9.672,9.938c0.274,15.353,0.66,30.73,0.547,46.011
	c-0.137,15.329,1.295,30.698-0.274,45.963c-1.915,18.7-14.508,27.825-32.485,27.825
	C2342.287,2734.796,2292.63,2734.796,2242.7,2734.796L2242.7,2734.796z M2357.865,2572.389c-0.523-16.512-1.344-33.048-1.593-49.656
	c-18.274,1.231-36.516,2.486-54.517,3.718c0.274,16.287,0.797,32.549,1.344,48.812
	C2321.349,2574.304,2339.623,2573.37,2357.865,2572.389L2357.865,2572.389z M2358.943,2680.802c0.547-20.978,0.273-41.988,0-63.022
	c-18.25,0.66-36.5,1.344-54.766,2.052c0.547,20.672,0.797,41.312,0.274,61.952
	C2322.693,2681.47,2340.967,2681.124,2358.943,2680.802z"/>
<path fill-rule="evenodd" clip-rule="evenodd" d="M2448.351,2733.927c13.688-46.896,28.131-94.364,40.813-142.379
	c12.818-48.49,25.227-97.599,38.109-147.279c22.289-2.76,44.297-5.657,66.587-8.602c14.227,48.289,28.92,97.06,43.219,146.467
	c14.444,49.833,26.852,100.52,40.282,151.729c-43.219,0-86.197,0.04-129.142,0.04c0-20.551,0-41.143,0-61.743
	c16.649-0.458,33.571-0.933,50.477-1.416c-5.641-22.096-11.523-44.088-17.453-65.959c-5.882-21.791-12.336-43.436-18.524-65.034
	c-8.047,32.984-15.828,65.871-24.703,98.243c-8.844,32.275-18.516,64.181-27.641,95.933
	C2489.437,2733.927,2468.749,2733.927,2448.351,2733.927z"/>
<path fill-rule="evenodd" clip-rule="evenodd" d="M2761.393,2665.497c33.555-1.207,67.383-2.551,101.204-3.919
	c5.914,24.108,12.094,48.329,18.274,72.694c-60.696,0.04-121.369,0.04-181.494,0.064c-0.274-51.732,0.137-103.529-1.078-155.286
	c-1.207-51.732-2.688-103.529-4.031-155.31c20.688-3.17,41.352-6.59,61.742-9.946c1.094,41.972,2.028,83.944,3.243,125.883
	C2760.459,2581.61,2761.119,2623.55,2761.393,2665.497z"/>
</svg>
